<svg xmlns="http://www.w3.org/2000/svg" width="36" height="36" viewBox="0 0 36 36" fill="none">
<path d="M6.57656 12.934C6.1535 13.4398 5.47955 13.8406 4.80672 13.7819C4.71783 13.1 5.05312 12.3695 5.44017 11.9168C5.86209 11.4008 6.60018 11.0305 7.19876 11C7.26964 11.7124 6.99173 12.4124 6.57656 12.934ZM7.192 13.9162C6.21426 13.8564 5.37491 14.4796 4.91135 14.4796C4.43767 14.4796 3.72771 13.9456 2.95474 13.9636C1.95224 13.9761 1.01501 14.5507 0.505319 15.4754C-0.555685 17.3145 0.22966 20.0377 1.24903 21.537C1.74747 22.2777 2.34379 23.0894 3.13026 23.0668C3.87398 23.0364 4.17326 22.5735 5.07 22.5735C5.97798 22.5735 6.23564 23.0668 7.02773 23.0488C7.84121 23.0364 8.35652 22.3081 8.85496 21.5675C9.42315 20.7264 9.65718 19.9022 9.66955 19.8616C9.65718 19.8435 8.09324 19.2384 8.08199 17.415C8.06961 15.8852 9.31176 15.157 9.36464 15.1152C8.66706 14.0574 7.56555 13.9456 7.19088 13.9174L7.192 13.9162ZM12.8357 11.8456V22.972H14.5403V19.1684H16.8974C19.0476 19.1684 20.5598 17.6691 20.5598 15.5047C20.5598 13.3359 19.0779 11.8468 16.9559 11.8468L12.8357 11.8456ZM14.5403 13.3043H16.5036C17.9798 13.3043 18.8248 14.1036 18.8248 15.5093C18.8248 16.9149 17.9798 17.721 16.4924 17.721H14.5403V13.3043ZM23.664 23.0544C24.7363 23.0544 25.7264 22.508 26.1787 21.6364H26.2147V22.972H27.7899V17.432C27.7899 15.8333 26.5252 14.7935 24.5731 14.7935C22.7684 14.7935 21.4317 15.8457 21.3856 17.2863H22.9147C23.0441 16.5988 23.6651 16.1517 24.527 16.1517C25.57 16.1517 26.1506 16.645 26.1506 17.5516V18.1624L24.0297 18.2923C22.0483 18.4153 20.9817 19.2327 20.9817 20.662C20.9817 22.1027 22.0843 23.0555 23.6651 23.0555L23.664 23.0544ZM24.1276 21.7369C23.2185 21.7369 22.639 21.2954 22.639 20.6203C22.639 19.9203 23.1959 19.5082 24.2558 19.4427L26.1494 19.3253V19.9542C26.1494 20.9962 25.2763 21.7369 24.1208 21.7369H24.1276ZM29.8939 26C31.5512 26 32.3321 25.3531 33.0116 23.4067L36 14.9041H34.2718L32.2679 21.4715H32.2319L30.2281 14.9041H28.447L31.3307 23.0014L31.1777 23.4947C30.9133 24.3245 30.4925 24.6463 29.742 24.6463C29.607 24.6463 29.3493 24.6294 29.2436 24.6181V25.9537C29.3426 25.9819 29.7656 25.9944 29.8883 25.9944L29.8939 26Z" fill="white"/>
</svg>