<svg xmlns="http://www.w3.org/2000/svg" width="36" height="36" viewBox="0 0 36 36" fill="none">
<path d="M36 15.1116L31.3011 26H29.8476L31.5935 22.1897L28.4999 15.1104H30.0287L32.2674 20.5365H32.2966L34.4644 15.1104L36 15.1116ZM16.4775 18.4785V22.8897H15.0004V12.0013H18.9085C19.84 11.9768 20.7422 12.3116 21.4397 12.9427C22.1315 13.5319 22.5118 14.3649 22.5005 15.2457C22.5118 16.1394 22.1192 16.9957 21.4397 17.5546C20.7602 18.174 19.9165 18.4785 18.9085 18.4785H16.4775ZM16.4719 13.3441V17.1416H18.9445C19.489 17.1602 20.0222 16.9537 20.4036 16.5827C20.785 16.2304 20.9953 15.7497 20.9953 15.2516C20.9953 14.7476 20.7838 14.2669 20.4036 13.9204C20.011 13.5319 19.4834 13.3254 18.9445 13.3429L16.4719 13.3441ZM25.4592 15.1116C26.3962 15.1116 27.141 15.3846 27.6854 15.9259C28.2299 16.4672 28.4999 17.2081 28.4999 18.1496V22.6517H27.2816V21.6367H27.2287C26.7011 22.4697 26.0036 22.8885 25.1307 22.8885C24.3803 22.8885 23.7594 22.6517 23.2554 22.171C22.7626 21.7219 22.4882 21.065 22.4994 20.3849C22.4994 19.6312 22.7626 19.0304 23.2959 18.58C23.8235 18.1367 24.5322 17.9116 25.4164 17.9116C26.1724 17.9116 26.7934 18.0632 27.2793 18.3607V18.0446C27.285 17.5826 27.0915 17.1392 26.7574 16.8289C26.4232 16.5069 25.9834 16.3249 25.5267 16.3307C24.8179 16.3307 24.2555 16.6527 23.8392 17.2967L22.7199 16.5431C23.3352 15.5887 24.2487 15.1092 25.4558 15.1092L25.4592 15.1116ZM23.8133 20.4164C23.8077 20.7687 23.9652 21.0965 24.2352 21.31C24.5164 21.5469 24.8686 21.6752 25.2252 21.6682C25.7584 21.6682 26.2736 21.4372 26.655 21.03C27.0588 20.6415 27.2883 20.0944 27.2883 19.5227C26.8901 19.182 26.3389 19.0117 25.6302 19.0117C25.1082 19.0117 24.6807 19.1459 24.3353 19.413C23.99 19.686 23.8133 20.0162 23.8133 20.4164ZM6.12454 12.0013C7.63648 11.9826 9.10118 12.5601 10.2205 13.6241L8.47458 15.3986C7.8356 14.7849 6.99188 14.4501 6.12454 14.4687C4.56648 14.4746 3.18953 15.5082 2.68555 17.0331C2.42794 17.8042 2.42794 18.643 2.68555 19.4154C3.18953 20.9402 4.56648 21.9739 6.12454 21.9797C6.95026 21.9797 7.66011 21.7674 8.21021 21.3905C8.84918 20.953 9.29467 20.2729 9.42854 19.4947H6.12342V17.1007H11.8944C11.9653 17.5196 12.0002 17.9396 12.0002 18.3642C12.0002 20.26 11.332 21.8642 10.1778 22.9457C9.16417 23.8942 7.77598 24.446 6.12342 24.446C3.82063 24.4577 1.71134 23.1335 0.650506 21.0184C-0.216835 19.2625 -0.216835 17.1847 0.650506 15.4277C1.71134 13.3126 3.82063 11.9884 6.11667 12.0001L6.12454 12.0013Z" fill="white"/>
</svg>