<svg xmlns="http://www.w3.org/2000/svg" width="36" height="36" viewBox="0 0 36 36" fill="none">
<path d="M32 17.9991C32 22.9614 27.9624 27 22.9997 27C20.9297 27 19.0215 26.2959 17.4993 25.1184C15.9779 26.2959 14.0697 27 11.9999 27C7.03741 27 3 22.9614 3 17.9991C3 13.0363 7.0375 9 11.9999 9C14.0698 9 15.978 9.70142 17.4993 10.8806C19.0216 9.70142 20.9298 9 22.9997 9C27.9621 9 32 13.0367 32 17.9991ZM22.9868 9.79459C21.1611 9.79459 19.4757 10.3927 18.1139 11.4021C19.3488 12.5514 20.2622 14.0439 20.6985 15.7259H19.8644C19.437 14.2388 18.6017 12.926 17.4862 11.9156C16.3719 12.926 15.5359 14.2388 15.1102 15.7259H14.2748C14.7122 14.0439 15.6255 12.5514 16.8604 11.4021C15.498 10.3927 13.8132 9.79459 11.9866 9.79459C7.46136 9.79459 3.79283 13.4629 3.79283 17.9892C3.79283 22.5142 7.46136 26.1838 11.9866 26.1838C13.8132 26.1838 15.498 25.5857 16.8604 24.5764C15.6984 23.4942 14.8218 22.1076 14.3583 20.5469H15.2018C15.6499 21.9135 16.4454 23.1198 17.4862 24.0627C18.5281 23.1198 19.3246 21.9135 19.7728 20.5469H20.616C20.1517 22.1077 19.2753 23.4942 18.1138 24.5764C19.4755 25.5857 21.1609 26.1838 22.9867 26.1838C27.512 26.1838 31.1805 22.5143 31.1805 17.9892C31.1806 13.463 27.5121 9.79459 22.9868 9.79459Z" fill="white" stroke="white"/>
<path d="M9.08524 16.086H7.75921L6.93049 18.4678L6.896 16.086H5.66713L5 19.9342H5.7997L6.31331 16.9942L6.38504 19.9342H6.96767L8.05956 16.9767L7.57032 19.9342H8.42438L9.08524 16.086ZM11.2862 19.9306H10.5783L10.5947 19.6059C10.3786 19.8622 10.0909 19.9849 9.69986 19.9849C9.23606 19.9849 8.92021 19.6358 8.92021 19.1308C8.92021 18.3677 9.47105 17.9242 10.4187 17.9242C10.5158 17.9242 10.64 17.9329 10.7671 17.9486C10.7935 17.8445 10.7999 17.8008 10.7999 17.7447C10.7999 17.5383 10.6518 17.4604 10.2525 17.4604C9.83504 17.4551 9.49018 17.5558 9.34864 17.6013C9.35769 17.5488 9.46757 16.8978 9.46757 16.8978C9.89237 16.777 10.1735 16.7315 10.4895 16.7315C11.2228 16.7315 11.6114 17.0483 11.6104 17.6486C11.6114 17.8096 11.5841 18.0081 11.5414 18.2699C11.467 18.7222 11.3081 19.6934 11.2863 19.9305V19.9306H11.2862ZM10.6861 18.5511C10.5963 18.5423 10.5572 18.5388 10.4955 18.5388C10.0108 18.5388 9.76657 18.6988 9.76657 19.0139C9.76657 19.2092 9.88643 19.3333 10.0716 19.3333C10.4202 19.3333 10.6705 19.0139 10.6861 18.5511ZM22.4703 16C21.3384 16 20.5468 16.9607 20.5468 18.3363C20.5468 19.3583 21.1197 19.9971 22.0391 19.9971C22.275 19.9971 22.4792 19.9673 22.7933 19.8833L22.943 19.0074C22.6607 19.1414 22.4285 19.2052 22.2177 19.2052C21.7213 19.2052 21.4216 18.8516 21.4216 18.2679C21.4216 17.4201 21.8675 16.8259 22.5054 16.8259C22.7424 16.8259 22.9639 16.8855 23.2688 17.0343L23.4085 16.1996C23.2834 16.1522 22.8431 16 22.4703 16ZM25.5423 19.9306H24.8353L24.8516 19.6059C24.6347 19.8622 24.346 19.9849 23.9557 19.9849C23.4928 19.9849 23.1751 19.6358 23.1751 19.1308C23.1751 18.3677 23.7279 17.9242 24.6745 17.9242C24.7717 17.9242 24.8961 17.9329 25.0233 17.9486C25.0494 17.8445 25.0559 17.8008 25.0559 17.7447C25.0559 17.5383 24.9079 17.4604 24.5093 17.4604C24.091 17.4551 23.7471 17.5558 23.6054 17.6013C23.6136 17.5488 23.7235 16.8978 23.7235 16.8978C24.1491 16.777 24.4304 16.7315 24.7444 16.7315C25.4788 16.7315 25.8673 17.0483 25.8664 17.6486C25.8681 17.8096 25.8401 18.0081 25.7974 18.2699C25.7239 18.7222 25.5643 19.6934 25.5424 19.9305V19.9306H25.5423ZM24.9419 18.5511C24.8529 18.5423 24.813 18.5388 24.7504 18.5388C24.2665 18.5388 24.0214 18.6988 24.0214 19.0139C24.0214 19.2092 24.1413 19.3333 24.3284 19.3333C24.6761 19.3333 24.9274 19.0139 24.9419 18.5511ZM15.4891 19.2053C15.4319 19.2247 15.3566 19.235 15.2595 19.235C15.0562 19.235 14.9663 19.1652 14.9663 19.0032C14.9682 18.9035 15.1089 18.1633 15.207 17.569H15.6451L15.7614 16.8165H15.3248L15.4237 16.3442H14.575C14.575 16.3442 14.2538 18.1861 14.2057 18.4774C14.1512 18.8108 14.0823 19.1739 14.0876 19.3121C14.0876 19.7576 14.3255 20 14.762 20C14.96 20 15.1421 19.9684 15.3766 19.8985L15.4891 19.2053ZM18.0982 19.8588C17.806 19.9447 17.5245 19.9849 17.2269 19.9849C16.2755 19.9829 15.7801 19.5045 15.7801 18.5884C15.7801 17.519 16.4108 16.7315 17.2668 16.7315C17.9665 16.7315 18.4141 17.1716 18.4141 17.8646C18.4141 18.0938 18.3823 18.317 18.3087 18.6347H16.6187C16.5615 19.087 16.863 19.276 17.3567 19.276C17.6606 19.276 17.9339 19.2165 18.2389 19.0801L18.0982 19.8588ZM17.6532 18.0232C17.6587 17.9584 17.7429 17.463 17.2583 17.463C16.9877 17.463 16.7936 17.6635 16.7157 18.0232H17.6532ZM11.9624 17.7903C11.9624 18.1867 12.1601 18.4589 12.6122 18.6645C12.958 18.8219 13.0115 18.8675 13.0115 19.0102C13.0115 19.2043 12.859 19.2919 12.5205 19.2919C12.2664 19.2919 12.0286 19.255 11.7553 19.1694C11.7553 19.1694 11.6429 19.8589 11.6374 19.8922C11.8326 19.9325 12.0049 19.9708 12.5268 19.985C13.428 19.985 13.8439 19.6532 13.8439 18.9392C13.8439 18.5079 13.6704 18.2576 13.2419 18.0676C12.8845 17.9084 12.8427 17.8734 12.8427 17.7273C12.8427 17.5575 12.9852 17.4718 13.262 17.4718C13.4289 17.4718 13.6586 17.4893 13.8746 17.5191L13.9963 16.7928C13.7748 16.7595 13.44 16.7315 13.2448 16.7315C12.289 16.7315 11.9587 17.2119 11.9624 17.7903ZM30.35 19.9342H29.5414L29.5822 19.643C29.3471 19.8837 29.1067 19.9887 28.7944 19.9887C28.1735 19.9887 27.7633 19.4732 27.7633 18.691C27.7633 17.6487 28.3994 16.772 29.1527 16.772C29.4833 16.772 29.7354 16.9015 29.9689 17.1982L30.1576 16.0861H31L30.35 19.9342ZM29.0919 19.2171C29.4894 19.2171 29.7699 18.782 29.7699 18.1625C29.7699 17.7644 29.6111 17.5491 29.3168 17.5491C28.9293 17.5491 28.6543 17.984 28.6543 18.5992C28.6543 19.0096 28.8015 19.2171 29.0919 19.2171ZM26.4653 16.8084C26.3583 17.7762 26.1685 18.7571 26.0206 19.7266L25.9815 19.9374H26.8347C27.1406 18.0239 27.2149 17.6502 27.6933 17.6974C27.7694 17.3045 27.911 16.9625 28.0181 16.7893C27.6599 16.7174 27.46 16.9135 27.1996 17.2836C27.2204 17.1226 27.2577 16.9677 27.2496 16.8084H26.4653ZM18.9826 16.8084C18.8753 17.7762 18.6848 18.7571 18.5368 19.7266L18.4977 19.9374H19.3518C19.6577 18.0239 19.7312 17.6502 20.2094 17.6974C20.2866 17.3045 20.4291 16.9625 20.5345 16.7893C20.1777 16.7174 19.9764 16.9135 19.7157 17.2836C19.7366 17.1226 19.7737 16.9677 19.7665 16.8084H18.9826Z" fill="white"/>
</svg>