<svg xmlns="http://www.w3.org/2000/svg" width="34" height="11" viewBox="0 0 34 11" fill="none">
    <path d="M16.8345 0.197646L14.5638 10.8376H11.8159L14.09 0.197646H16.8345ZM28.3942 7.06753L29.8396 3.07146L30.6728 7.06753H28.3942ZM31.4584 10.8376H34L31.7826 0.197646H29.4371C29.4337 0.197646 29.4292 0.197646 29.4258 0.197646C28.9054 0.197646 28.4588 0.516832 28.2706 0.970054L28.2672 0.978005L24.1464 10.8376H27.0304L27.604 9.24731H31.1285L31.4584 10.8376ZM24.2881 7.364C24.2995 4.55494 20.4122 4.40045 20.4395 3.14529C20.4485 2.76363 20.8102 2.35698 21.6037 2.25361C21.7511 2.23885 21.9211 2.22976 22.0934 2.22976C22.8994 2.22976 23.6635 2.41378 24.3437 2.74318L24.3131 2.72955L24.7949 0.472532C24.0319 0.176064 23.1488 0.00340768 22.2261 0H22.2249C19.5087 0 17.5986 1.44827 17.5816 3.519C17.5646 5.05019 18.9453 5.90324 19.9871 6.41439C21.0584 6.93577 21.4178 7.27086 21.4121 7.73544C21.4053 8.45105 20.5596 8.76456 19.7683 8.77705C19.7321 8.77819 19.6879 8.77819 19.6448 8.77819C18.6574 8.77819 17.7278 8.52943 16.9161 8.08984L16.9467 8.10461L16.4491 10.4355C17.3401 10.7933 18.3728 11 19.4543 11C19.4713 11 19.4883 11 19.5053 11H19.5031C22.3893 11 24.2768 9.57218 24.287 7.36059L24.2881 7.364ZM12.9087 0.197646L8.45806 10.8376H5.55368L3.3635 2.34449C3.32155 1.93102 3.06875 1.58571 2.71732 1.41305L2.71052 1.40964C1.93058 1.02571 1.02367 0.713341 0.0748201 0.516832L0 0.504337L0.065751 0.19651H4.74086C5.37797 0.19651 5.90738 0.663363 6.006 1.27334L6.00713 1.28015L7.16458 7.43783L10.0236 0.195374L12.9087 0.197646Z" fill="white"/>
</svg>