<svg className="button__svg" xmlns="http://www.w3.org/2000/svg" width="16" height="16" viewBox="0 0 16 17" fill="none">
<g clip-path="url(#clip0_581_26010)">
<path fill-rule="evenodd" clip-rule="evenodd" d="M10.2011 3.05467C10.7598 2.37867 11.1358 1.43667 11.0331 0.5C10.2278 0.532667 9.25378 1.03667 8.67645 1.71267C8.15845 2.31133 7.70512 3.26933 7.82779 4.18733C8.72512 4.25733 9.64245 3.73133 10.2011 3.05467ZM12.2145 9C12.2371 11.4213 14.3385 12.2273 14.3618 12.238C14.3445 12.2947 14.0265 13.386 13.2545 14.5133C12.5878 15.488 11.8958 16.4593 10.8051 16.4793C9.73378 16.4987 9.38978 15.844 8.16445 15.844C6.94045 15.844 6.55779 16.4593 5.54312 16.4987C4.49112 16.5387 3.68979 15.4447 3.01712 14.474C1.64312 12.4873 0.593119 8.86067 2.00312 6.41267C2.70379 5.19667 3.95512 4.42667 5.31379 4.40733C6.34712 4.38733 7.32245 5.10267 7.95445 5.10267C8.58578 5.10267 9.77112 4.24267 11.0171 4.36867C11.5391 4.39067 13.0031 4.57933 13.9438 5.956C13.8678 6.00267 12.1965 6.976 12.2145 9Z" fill="#191919"/>
</g>
<defs>
<clipPath id="clip0_581_26010">
<rect width="16" height="16" fill="white" transform="translate(0 0.5)"/>
</clipPath>
</defs>
</svg>