<svg className="button__svg" xmlns="http://www.w3.org/2000/svg" width="16" height="16" viewBox="0 0 16 16" fill="none">
<path d="M4.66667 5.38342H4.71667V5.33342V4.00008C4.71667 3.12929 5.06259 2.29416 5.67833 1.67841C6.29408 1.06267 7.12921 0.716748 8 0.716748C8.87079 0.716748 9.70592 1.06267 10.3217 1.67841C10.9374 2.29416 11.2833 3.12929 11.2833 4.00008V5.33342V5.38342H11.3333H13.3333C13.4969 5.38342 13.6537 5.44838 13.7694 5.56403C13.885 5.67968 13.95 5.83653 13.95 6.00008V14.0001C13.95 14.1636 13.885 14.3205 13.7694 14.4361C13.6537 14.5518 13.4969 14.6167 13.3333 14.6167H2.66667C2.50312 14.6167 2.34626 14.5518 2.23062 14.4361C2.11497 14.3205 2.05 14.1636 2.05 14.0001V6.00008C2.05 5.83653 2.11497 5.67968 2.23062 5.56403C2.34626 5.44838 2.50312 5.38342 2.66667 5.38342H4.66667ZM4.71667 6.66675V6.61675H4.66667H3.33333H3.28333V6.66675V13.3334V13.3834H3.33333H12.6667H12.7167V13.3334V6.66675V6.61675H12.6667H11.3333H11.2833V6.66675V7.95008H10.05V6.66675V6.61675H10H6H5.95V6.66675V7.95008H4.71667V6.66675ZM5.95 5.33342V5.38342H6H10H10.05V5.33342V4.00008C10.05 3.45639 9.83402 2.93496 9.44957 2.55051C9.06512 2.16606 8.54369 1.95008 8 1.95008C7.45631 1.95008 6.93488 2.16606 6.55043 2.55051C6.16598 2.93496 5.95 3.45639 5.95 4.00008V5.33342Z" fill="#191919" stroke="white" stroke-width="0.1"/>
</svg>