<svg className="button__svg" xmlns="http://www.w3.org/2000/svg" width="16" height="16" viewBox="0 0 16 16" fill="none">
<path fill-rule="evenodd" clip-rule="evenodd" d="M14 4.66667C14 4.29848 13.7015 4 13.3333 4L2.66667 4C2.29848 4 2 4.29848 2 4.66667C2 5.03486 2.29848 5.33333 2.66667 5.33333L13.3333 5.33333C13.7015 5.33333 14 5.03486 14 4.66667Z" fill="white"/>
<path fill-rule="evenodd" clip-rule="evenodd" d="M12 7.99992C12 7.63173 11.7015 7.33325 11.3333 7.33325L4.66667 7.33325C4.29848 7.33325 4 7.63173 4 7.99992C4 8.36811 4.29848 8.66659 4.66667 8.66659H11.3333C11.7015 8.66659 12 8.36811 12 7.99992Z" fill="white"/>
<path fill-rule="evenodd" clip-rule="evenodd" d="M9.33398 11.3334C9.33398 10.9652 9.03551 10.6667 8.66732 10.6667H7.33398C6.9658 10.6667 6.66732 10.9652 6.66732 11.3334C6.66732 11.7016 6.9658 12.0001 7.33398 12.0001H8.66732C9.03551 12.0001 9.33398 11.7016 9.33398 11.3334Z" fill="white"/>
</svg>