<svg xmlns="http://www.w3.org/2000/svg" xmlns:xlink="http://www.w3.org/1999/xlink" viewBox="0,0,256,256" width="48px" height="48px"><g fill="#95C989" fill-rule="nonzero" stroke="none" stroke-width="1" stroke-linecap="butt" stroke-linejoin="miter" stroke-miterlimit="10" stroke-dasharray="" stroke-dashoffset="0" font-family="none" font-weight="none" font-size="none" text-anchor="none" style="mix-blend-mode: normal"><g transform="scale(5.33333,5.33333)"><path d="M24,3c-11.58614,0 -21,9.41387 -21,21c0,11.58613 9.41386,21 21,21c11.58614,0 21,-9.41387 21,-21c0,-11.58613 -9.41386,-21 -21,-21zM24,5c10.50526,0 19,8.49474 19,19c0,10.50526 -8.49474,19 -19,19c-10.50526,0 -19,-8.49474 -19,-19c0,-10.50526 8.49474,-19 19,-19zM33.95117,15.99023c-0.29399,0.01706 -0.56552,0.16283 -0.74219,0.39844l-10.96484,14.17969l-7.60352,-6.33594c-0.27299,-0.23965 -0.65446,-0.31244 -0.99651,-0.19014c-0.34205,0.1223 -0.59089,0.42045 -0.65004,0.77886c-0.05915,0.35841 0.08069,0.72071 0.3653,0.94643l8.40039,7c0.20861,0.17396 0.479,0.25559 0.74903,0.22612c0.27002,-0.02947 0.51644,-0.16751 0.68261,-0.38237l11.59961,-15c0.24548,-0.30857 0.28674,-0.73257 0.10536,-1.08268c-0.18138,-0.35011 -0.55155,-0.56096 -0.94521,-0.53841z"></path></g></g></svg>