<svg xmlns="http://www.w3.org/2000/svg" width="32" height="33" viewBox="0 0 32 33" fill="none">
<path fill-rule="evenodd" clip-rule="evenodd" d="M28 9.83333C28 9.09695 27.403 8.5 26.6667 8.5L5.33334 8.5C4.59696 8.5 4 9.09695 4 9.83333C4 10.5697 4.59696 11.1667 5.33334 11.1667L26.6667 11.1667C27.403 11.1667 28 10.5697 28 9.83333Z" fill="black"/>
<path fill-rule="evenodd" clip-rule="evenodd" d="M24 16.5001C24 15.7637 23.403 15.1667 22.6667 15.1667L9.33333 15.1667C8.59695 15.1667 8 15.7637 8 16.5001C8 17.2365 8.59695 17.8334 9.33333 17.8334H22.6667C23.403 17.8334 24 17.2365 24 16.5001Z" fill="black"/>
<path fill-rule="evenodd" clip-rule="evenodd" d="M18.666 23.1666C18.666 22.4302 18.0691 21.8333 17.3327 21.8333H14.666C13.9296 21.8333 13.3327 22.4302 13.3327 23.1666C13.3327 23.903 13.9296 24.4999 14.666 24.4999H17.3327C18.0691 24.4999 18.666 23.903 18.666 23.1666Z" fill="black"/>
</svg>