<svg xmlns="http://www.w3.org/2000/svg" width="62" height="58" viewBox="0 0 62 58" fill="none">
<g clip-path="url(#clip0_2190_8545)">
<path d="M20.9408 2.00001H61.7408V0.200012H20.9408C19.6179 0.200012 18.5408 1.20981 18.5408 2.45001C18.5408 2.95851 18.728 3.42291 19.0333 3.80001C18.728 4.17711 18.5408 4.64151 18.5408 5.15001C18.5408 5.65851 18.728 6.12291 19.0333 6.50001C18.728 6.87711 18.5408 7.34151 18.5408 7.85001C18.5408 9.09021 19.6179 10.1 20.9408 10.1H27.2528C26.5741 11.2538 26.2208 12.5255 26.2208 13.853C26.2208 16.3982 27.4784 18.7481 29.6701 20.3015C29.8112 20.4014 29.9619 20.4788 30.1174 20.5427C29.4781 21.413 29.1008 22.4651 29.1008 23.6C29.1008 24.5837 29.3878 25.5044 29.8803 26.3H23.3408C23.3408 21.8342 19.4643 18.2 14.7008 18.2C14.1709 18.2 13.7408 18.6032 13.7408 19.1V26.3405C8.36574 26.7968 4.14078 31.0439 4.14078 36.2H3.18078C1.59294 36.2 0.300781 37.4114 0.300781 38.9V42.5C0.300781 43.9886 1.59294 45.2 3.18078 45.2H4.18398C4.6419 49.943 8.68158 53.7302 13.7408 54.1595V55.1C13.7408 56.5886 15.0329 57.8 16.6208 57.8H20.4608C22.0486 57.8 23.3408 56.5886 23.3408 55.1V54.2H38.7008V55.1C38.7008 56.5886 39.9929 57.8 41.5808 57.8H45.4208C47.0086 57.8 48.3008 56.5886 48.3008 55.1V54.1595C53.6758 53.7032 57.9008 49.4561 57.9008 44.3V36.2C57.9008 34.256 57.2912 32.447 56.2553 30.9152L59.5395 27.8363L58.1821 26.5637L55.0717 29.4788C53.1421 27.5294 50.3955 26.3 47.3408 26.3H39.8413C40.3337 25.5044 40.6208 24.5837 40.6208 23.6C40.6208 22.4651 40.2435 21.4121 39.6032 20.5418C39.7597 20.477 39.9113 20.4005 40.0515 20.3015C42.2432 18.749 43.5008 16.3982 43.5008 13.853C43.5008 12.5255 43.1475 11.2538 42.4688 10.1H61.7408V8.30001H40.6208C40.2435 8.30001 39.9008 8.50791 39.7453 8.82921C39.5897 9.15141 39.6502 9.52941 39.9008 9.79491C41.0153 10.9811 41.5808 12.3464 41.5808 13.853C41.5808 15.8285 40.6016 17.6555 38.8947 18.8651C38.8371 18.9056 38.7728 18.9254 38.7027 18.9254C38.6547 18.9254 38.5328 18.9137 38.4454 18.8057C38.3389 18.6743 38.3667 18.4862 38.5078 18.3863C40.0544 17.291 40.9414 15.6386 40.9414 13.8521C40.9414 10.7093 38.2141 8.15241 34.8617 8.15241C31.5094 8.15241 28.7811 10.7093 28.7811 13.8521C28.7811 15.6377 29.6681 17.2901 31.2147 18.3854C31.3549 18.4853 31.3837 18.6734 31.2771 18.8057C31.1715 18.938 30.968 18.965 30.8288 18.8642C29.12 17.6564 28.1408 15.8294 28.1408 13.853C28.1408 12.3455 28.7062 10.9802 29.8208 9.79491C30.0704 9.52941 30.1309 9.15141 29.9763 8.82921C29.8198 8.50791 29.4781 8.30001 29.1008 8.30001H20.9408C20.6758 8.30001 20.4608 8.09841 20.4608 7.85001C20.4608 7.60161 20.6758 7.40001 20.9408 7.40001H35.8208V5.60001H20.9408C20.6758 5.60001 20.4608 5.39841 20.4608 5.15001C20.4608 4.90161 20.6758 4.70001 20.9408 4.70001H35.8208V2.90001H20.9408C20.6758 2.90001 20.4608 2.69841 20.4608 2.45001C20.4608 2.20161 20.6758 2.00001 20.9408 2.00001ZM38.7008 23.6C38.7008 25.5854 36.9785 27.2 34.8608 27.2C32.743 27.2 31.0208 25.5854 31.0208 23.6C31.0208 21.6146 32.743 20 34.8608 20C36.9785 20 38.7008 21.6146 38.7008 23.6ZM55.9808 36.2V44.3C55.9808 48.7658 52.1043 52.4 47.3408 52.4C46.8109 52.4 46.3808 52.8032 46.3808 53.3V55.1C46.3808 55.5959 45.9497 56 45.4208 56H41.5808C41.0518 56 40.6208 55.5959 40.6208 55.1V53.3C40.6208 52.8032 40.1907 52.4 39.6608 52.4H22.3808C21.8509 52.4 21.4208 52.8032 21.4208 53.3V55.1C21.4208 55.5959 20.9897 56 20.4608 56H16.6208C16.0918 56 15.6608 55.5959 15.6608 55.1V53.3C15.6608 52.8032 15.2307 52.4 14.7008 52.4C9.93726 52.4 6.06078 48.7658 6.06078 44.3C6.06078 43.8032 5.6307 43.4 5.10078 43.4H3.18078C2.65182 43.4 2.22078 42.9959 2.22078 42.5V38.9C2.22078 38.4041 2.65182 38 3.18078 38H5.10078C5.6307 38 6.06078 37.5968 6.06078 37.1V36.2C6.06078 31.7342 9.93726 28.1 14.7008 28.1C15.2307 28.1 15.6608 27.6968 15.6608 27.2V20.0639C18.9133 20.5022 21.4208 23.1311 21.4208 26.3V27.2C21.4208 27.6968 21.8509 28.1 22.3808 28.1H31.6832C32.5952 28.6679 33.6867 29 34.8608 29C36.0349 29 37.1264 28.6679 38.0384 28.1H47.3408C52.1043 28.1 55.9808 31.7342 55.9808 36.2ZM30.7001 13.853C30.7001 11.702 32.5664 9.95331 34.8608 9.95331C37.1552 9.95331 39.0205 11.7029 39.0205 13.853C39.0205 15.0698 38.4118 16.1984 37.3491 16.9508C36.8307 17.318 36.5379 17.8571 36.4784 18.4205C35.9648 18.2792 35.4233 18.2 34.8608 18.2C34.2982 18.2 33.7558 18.2792 33.2422 18.4205C33.1827 17.858 32.8899 17.318 32.3715 16.9508C31.3097 16.1984 30.7001 15.0698 30.7001 13.853Z" fill="#191919"/>
<path d="M12.7804 32.6C11.1926 32.6 9.90039 33.8114 9.90039 35.3C9.90039 36.7886 11.1926 38 12.7804 38C14.3682 38 15.6604 36.7886 15.6604 35.3C15.6604 33.8114 14.3682 32.6 12.7804 32.6ZM12.7804 36.2C12.2514 36.2 11.8204 35.7959 11.8204 35.3C11.8204 34.8041 12.2514 34.4 12.7804 34.4C13.3094 34.4 13.7404 34.8041 13.7404 35.3C13.7404 35.7959 13.3094 36.2 12.7804 36.2Z" fill="#191919"/>
<path d="M29.1007 29.9C27.5129 29.9 26.2207 31.1114 26.2207 32.6C26.2207 34.0886 27.5129 35.3 29.1007 35.3H40.6207C42.2085 35.3 43.5007 34.0886 43.5007 32.6C43.5007 31.1114 42.2085 29.9 40.6207 29.9H29.1007ZM41.5807 32.6C41.5807 33.0959 41.1497 33.5 40.6207 33.5H29.1007C28.5717 33.5 28.1407 33.0959 28.1407 32.6C28.1407 32.1041 28.5717 31.7 29.1007 31.7H40.6207C41.1497 31.7 41.5807 32.1041 41.5807 32.6Z" fill="#191919"/>
</g>
<defs>
<clipPath id="clip0_2190_8545">
<rect width="61.44" height="57.6" fill="white" transform="translate(0.300781 0.200012)"/>
</clipPath>
</defs>
</svg>