<svg xmlns="http://www.w3.org/2000/svg" width="62" height="58" viewBox="0 0 62 58" fill="none">
<g clip-path="url(#clip0_2190_8537)">
<path d="M6.94249 23.8089C7.48681 24.3192 8.21065 24.6 8.97961 24.6C9.74857 24.6 10.4724 24.3192 11.0158 23.8098C11.5601 23.2995 11.8596 22.6209 11.8596 21.9C11.8596 21.1791 11.5601 20.5005 11.0167 19.9911C9.92809 18.9705 8.03113 18.9714 6.94345 19.9911H6.94249C6.39913 20.5005 6.09961 21.1791 6.09961 21.9C6.09961 22.6209 6.39913 23.2995 6.94249 23.8089ZM8.30089 21.2646C8.48233 21.0936 8.72329 21 8.97961 21C9.23593 21 9.47689 21.0936 9.65833 21.2646C9.83977 21.4338 9.93961 21.6597 9.93961 21.9C9.93961 22.1403 9.83977 22.3662 9.65833 22.5363C9.29641 22.8765 8.66377 22.8765 8.30185 22.5354C8.11945 22.3662 8.01961 22.1403 8.01961 21.9C8.01961 21.6597 8.11945 21.4338 8.30089 21.2646Z" fill="#191919"/>
<path d="M31.0598 0.299988C14.1206 0.299988 0.339844 13.2195 0.339844 29.1C0.339844 44.9805 14.1206 57.9 31.0598 57.9C47.999 57.9 61.7798 44.9805 61.7798 29.1C61.7798 13.2195 47.999 0.299988 31.0598 0.299988ZM59.136 23.106L44.9798 36.3774L35.3011 27.3036L36.5386 26.1453L35.1821 24.8718L31.3738 28.4376C30.3792 29.37 28.8758 29.5563 27.6758 28.9956L34.6166 22.5399L34.6186 22.5372L49.6176 8.47469C54.3149 12.1962 57.7248 17.2974 59.136 23.106ZM16.8144 38.055L22.2451 32.9637C22.6186 32.6127 23.2282 32.6127 23.6035 32.9637C23.784 33.1338 23.8838 33.3597 23.8838 33.6C23.8838 33.8403 23.784 34.0662 23.6035 34.2363L18.1728 39.3276C17.7974 39.6795 17.1878 39.6777 16.8144 39.3276C16.44 38.9766 16.44 38.406 16.8144 38.055ZM20.209 41.2365L25.6397 36.1452C25.8269 35.9697 26.0726 35.8815 26.3194 35.8815C26.5651 35.8815 26.8109 35.9688 26.9981 36.1443C27.3725 36.4953 27.3725 37.0659 26.999 37.4178L21.5674 42.5091C21.2054 42.8493 20.5728 42.8493 20.2109 42.5091C20.0294 42.3399 19.9296 42.114 19.9296 41.8737C19.9277 41.6325 20.0275 41.4066 20.209 41.2365ZM23.6026 44.4189L29.0333 39.3276C29.2147 39.1584 29.4557 39.0648 29.712 39.0648C29.9683 39.0648 30.2093 39.1584 30.3907 39.3276C30.7651 39.6786 30.7651 40.2492 30.3907 40.6011L24.96 45.6924C24.5866 46.0425 23.977 46.0434 23.6016 45.6924C23.2282 45.3405 23.2282 44.7699 23.6026 44.4189ZM26.9971 47.6004L32.4278 42.5091C32.8022 42.1572 33.4118 42.1581 33.7862 42.5091C34.1606 42.8601 34.1606 43.4307 33.7862 43.7826L28.3555 48.873C27.9811 49.224 27.3725 49.2249 26.9971 48.873C26.6227 48.5229 26.6227 47.9514 26.9971 47.6004ZM35.1427 45.0552C36.2659 44.0031 36.2659 42.2895 35.1427 41.2365C34.4342 40.5723 33.4464 40.3284 32.5306 40.503C32.7158 39.6453 32.4566 38.7183 31.7482 38.055C31.0397 37.3908 30.0518 37.1478 29.136 37.3215C29.3213 36.4638 29.0621 35.5368 28.3536 34.8726C27.6451 34.2084 26.6573 33.9663 25.7414 34.14C25.9267 33.2823 25.6675 32.3553 24.959 31.6911C23.8349 30.6372 22.008 30.6381 20.8858 31.6911L16.513 35.7906L13.7798 33.2274V31.2726L26.2598 19.5726L27.5011 20.7363C27.6806 20.9055 27.9254 21 28.1798 21H31.6224L32.5795 21.8973L25.5235 28.461C25.3411 28.6302 25.2394 28.8615 25.2403 29.1027C25.2413 29.3439 25.345 29.5743 25.5283 29.7426C27.5222 31.5741 30.7536 31.5597 32.7302 29.7102L33.9427 28.5753L43.705 37.7274C44.4538 38.4294 44.4538 39.5706 43.705 40.2726L33.3773 49.9548C32.6285 50.6559 31.4112 50.6559 30.6624 49.9548L30.2899 49.6047L35.1427 45.0552ZM24.9264 18.2766L12.7882 29.6571L10.6934 27.8724L23.039 16.3722L24.9264 18.2766ZM48.1008 7.35149L33.9398 20.6274L32.6986 19.4637C32.519 19.2945 32.2742 19.2 32.0198 19.2H28.5773L26.9568 17.6808L15.6768 6.29129C20.1302 3.64169 25.4054 2.09999 31.0598 2.09999C37.4323 2.09999 43.3258 4.05389 48.1008 7.35149ZM14.0707 7.31639L21.7325 15.0519L9.27168 26.6592L3.38592 21.6426C5.17152 15.8268 8.98752 10.8102 14.0707 7.31639ZM31.0598 56.1C15.1795 56.1 2.25984 43.9878 2.25984 29.1C2.25984 27.2244 2.46624 25.3929 2.856 23.6244L11.8598 31.2978V33.6C11.8598 33.8385 11.9616 34.068 12.1411 34.2363L15.1872 37.092C14.3539 38.1486 14.4365 39.6444 15.457 40.6002C16.0186 41.1258 16.7558 41.3886 17.4931 41.3886C17.6851 41.3886 17.8762 41.3688 18.0653 41.3328C18.0278 41.5083 18.0077 41.6883 18.0077 41.8719C18.0077 42.5928 18.3072 43.2714 18.8515 43.7817C19.3949 44.2911 20.1187 44.5719 20.8877 44.5719C21.0826 44.5719 21.2746 44.553 21.4618 44.5179C21.2784 45.3756 21.5376 46.2999 22.2451 46.9632C22.8067 47.4897 23.544 47.7534 24.2813 47.7534C24.4742 47.7534 24.6672 47.7327 24.8573 47.6967C24.672 48.5544 24.9312 49.4814 25.6387 50.1456C26.2003 50.6721 26.9376 50.9349 27.6749 50.9349C28.0493 50.9349 28.4237 50.8656 28.775 50.7297L29.305 51.2265C30.0538 51.9285 31.0368 52.2795 32.0198 52.2795C33.0029 52.2795 33.9859 51.9285 34.7347 51.2265L45.0624 41.5443C46.0963 40.575 46.3987 39.1899 46.0051 37.9614L59.5622 25.2516C59.7552 26.5089 59.8598 27.7932 59.8598 29.1C59.8598 43.9878 46.9402 56.1 31.0598 56.1Z" fill="#191919"/>
</g>
<defs>
<clipPath id="clip0_2190_8537">
<rect width="61.44" height="57.6" fill="white" transform="translate(0.339844 0.299988)"/>
</clipPath>
</defs>
</svg>