<svg width="20" height="18" viewBox="0 0 20 18" fill="none" xmlns="http://www.w3.org/2000/svg">
<path fill-rule="evenodd" clip-rule="evenodd" d="M9.775 9C9.175 9 8.675 8.74687 8.275 8.24063C7.875 7.73438 7.71667 7.14375 7.8 6.46875L8.125 3.7125C8.25833 2.64375 8.69167 1.75763 9.425 1.05413C10.1583 0.350627 11.0167 -0.000747607 12 1.19426e-06C12.9833 1.19426e-06 13.8417 0.351753 14.575 1.05525C15.3083 1.75875 15.7417 2.6445 15.875 3.7125L16.2 6.46875C16.2833 7.14375 16.125 7.73438 15.725 8.24063C15.325 8.74687 14.825 9 14.225 9H9.775ZM4 18V14.85C4 14.2125 4.146 13.6264 4.438 13.0916C4.73 12.5569 5.11733 12.1493 5.6 11.8687C6.63333 11.2875 7.68333 10.8514 8.75 10.5604C9.81667 10.2694 10.9 10.1242 12 10.125C13.1 10.125 14.1833 10.2705 15.25 10.5615C16.3167 10.8525 17.3667 11.2882 18.4 11.8687C18.8833 12.15 19.271 12.558 19.563 13.0927C19.855 13.6275 20.0007 14.2133 20 14.85V18H4ZM3 3.375C3.41421 3.375 3.75 3.75276 3.75 4.21875V5.90625H5.25C5.66421 5.90625 6 6.28401 6 6.75C6 7.21599 5.66421 7.59375 5.25 7.59375H3.75V9.28125C3.75 9.74724 3.41421 10.125 3 10.125C2.58579 10.125 2.25 9.74724 2.25 9.28125V7.59375H0.75C0.335786 7.59375 0 7.21599 0 6.75C0 6.28401 0.335786 5.90625 0.75 5.90625H2.25V4.21875C2.25 3.75276 2.58579 3.375 3 3.375Z" fill="#191919"/>
</svg>
