<svg width="12" height="14" viewBox="0 0 12 14" fill="none" xmlns="http://www.w3.org/2000/svg">
<path fill-rule="evenodd" clip-rule="evenodd" d="M0.36109 6.74704H1.47969V6.6304V4.6942C1.47969 3.58689 2.00123 2.58005 2.8404 1.85056V1.84958C3.67995 1.11998 4.83876 0.666748 6.11381 0.666748C7.38786 0.666748 8.54642 1.11998 9.38597 1.84958L9.38722 1.85056C10.2264 2.58005 10.7479 3.58689 10.7479 4.6942V6.6304V6.74704H11.6389C11.8374 6.74704 12 6.88832 12 7.06074V13.6864C12 13.8588 11.8374 14.0001 11.6389 14.0001H0.36109C0.162565 14.0001 0 13.8588 0 13.6864V7.06074C0 6.88832 0.162565 6.74704 0.36109 6.74704ZM3.28015 6.74704H8.94709V6.6304V4.67185C8.94709 3.99476 8.6282 3.37877 8.11529 2.93248L8.11466 2.93292C7.60137 2.48652 6.89267 2.20928 6.11381 2.20928C5.33457 2.20928 4.62587 2.48641 4.11196 2.93248C3.59891 3.37877 3.28015 3.99476 3.28015 4.67185V6.63051V6.74704ZM6.13666 10.3725L6.70863 12.6662L5.14079 12.672L5.60089 10.3474C5.1725 10.2281 4.86198 9.87921 4.86198 9.46731C4.86198 8.95722 5.33769 8.54381 5.9249 8.54381C6.51148 8.54381 6.98757 8.95722 6.98757 9.46731C6.98757 9.91436 6.62198 10.2873 6.13666 10.3725Z" fill="#191919"/>
</svg>
