<svg xmlns="http://www.w3.org/2000/svg" width="20" height="20" viewBox="0 0 20 20" fill="none">
<path fill-rule="evenodd" clip-rule="evenodd" d="M10.0004 0.980594C12.9368 0.980594 13.2867 0.995265 14.4464 1.04588C15.1822 1.05468 15.882 1.19406 16.5297 1.44053L16.4879 1.42659C17.4518 1.80217 18.2 2.5504 18.5675 3.48935L18.5763 3.51429C18.8081 4.1202 18.946 4.82075 18.9549 5.5521V5.55577C19.0069 6.71625 19.0187 7.06469 19.0187 10.0018C19.0187 12.939 19.0047 13.2882 18.9512 14.4479C18.9372 15.1844 18.7971 15.8842 18.5514 16.5319L18.5653 16.4894C18.3761 16.9853 18.0959 17.4078 17.7416 17.7555L17.7408 17.7562C17.3939 18.1113 16.9713 18.3915 16.4997 18.5697L16.4762 18.5778C15.8681 18.8096 15.1653 18.9475 14.431 18.9563H14.4274C13.2595 19.0084 12.9155 19.0201 9.97323 19.0201C7.02948 19.0201 6.68617 19.0062 5.51909 18.9527C4.77967 18.9387 4.07692 18.7986 3.42626 18.5529L3.46954 18.5668C2.97366 18.3805 2.55113 18.0995 2.20636 17.7438L2.20563 17.743C1.84692 17.3983 1.56524 16.975 1.38845 16.5011L1.38111 16.4784C1.15004 15.871 1.00994 15.169 0.995999 14.4354V14.4296L0.993725 14.3656C0.954377 13.26 0.940249 12.863 0.940249 9.98936C0.940249 7.11827 0.954337 6.71766 0.99356 5.60238L0.995999 5.53303C1.00994 4.79434 1.14931 4.09233 1.39505 3.4424L1.38111 3.48568C1.5623 2.9876 1.84472 2.5636 2.2049 2.22103L2.20636 2.21957C2.54966 1.85866 2.97292 1.57771 3.44753 1.40385L3.47027 1.39652C4.07399 1.16325 4.7716 1.02314 5.50075 1.01067H5.50588L5.56619 1.00855C6.6872 0.96911 7.06968 0.955653 9.96002 0.955653L10.0004 0.980594ZM15.8732 5.4494C16.6016 5.4494 17.1929 4.85816 17.1929 4.129C17.1921 3.40059 16.6016 2.81081 15.8732 2.81008C15.1448 2.81008 14.5535 3.40059 14.5535 4.12974C14.5535 4.85816 15.1448 5.4494 15.8732 5.4494ZM4.35201 10.0004C4.35201 6.8813 6.88056 4.35201 10.0004 4.35201C13.1202 4.35201 15.6487 6.8813 15.6487 10.0004C15.6487 13.1194 13.1202 15.6487 10.0004 15.6487C6.8813 15.6487 4.35201 13.1194 4.35201 10.0004Z" fill="white"/>
<path d="M10.0004 13.6674C7.97503 13.6674 6.33333 12.0257 6.33333 10.0004C6.33333 7.97503 7.97503 6.33333 10.0004 6.33333C12.0257 6.33333 13.6674 7.97503 13.6674 10.0004C13.6674 12.025 12.0264 13.6667 10.0018 13.6667L10.0004 13.6674Z" fill="white"/>
</svg>