<svg xmlns="http://www.w3.org/2000/svg" width="24" height="24" viewBox="0 0 24 24" fill="none">
<path d="M11.9286 2.01667C12.9965 2 14.0567 2.00867 15.1162 2C15.1514 3.35463 15.689 4.57387 16.5443 5.47696L16.543 5.47562C17.4635 6.32335 18.6613 6.87294 19.9817 6.96632L20 6.96765V10.3266C18.7526 10.2945 17.5796 10.0004 16.5221 9.49483L16.5756 9.51751C16.0641 9.26606 15.6316 9.00794 15.2205 8.7198L15.2545 8.74248C15.2466 11.1763 15.2623 13.6101 15.2382 16.0352C15.171 17.2711 14.7691 18.3983 14.1245 19.3394L14.1376 19.3187C13.0598 20.8968 11.314 21.9326 9.32876 21.994H9.31962C9.23938 21.998 9.14478 22 9.04953 22C7.92089 22 6.86596 21.6785 5.96696 21.1203L5.99306 21.1356C4.35685 20.1291 3.2282 18.407 3.01944 16.4041L3.01683 16.3767C3.00052 15.9598 2.99269 15.543 3.009 15.1348C3.32867 11.9473 5.94087 9.48149 9.11608 9.48149C9.47294 9.48149 9.82262 9.51284 10.1625 9.5722L10.126 9.56686C10.1423 10.8001 10.0934 12.034 10.0934 13.2673C9.8174 13.1652 9.49903 13.1059 9.16696 13.1059C7.94829 13.1059 6.91163 13.9022 6.52802 15.0141L6.52215 15.0341C6.43538 15.3189 6.38515 15.6464 6.38515 15.9852C6.38515 16.1226 6.39363 16.2587 6.40929 16.3921L6.40798 16.376C6.62458 17.7407 7.76888 18.7705 9.1487 18.7705C9.18849 18.7705 9.22764 18.7698 9.26678 18.7678H9.26091C10.2154 18.7385 11.0439 18.2136 11.5123 17.4379L11.5189 17.4259C11.693 17.1778 11.8124 16.8776 11.8522 16.5515L11.8529 16.5421C11.9344 15.0501 11.9018 13.5667 11.9096 12.0747C11.9175 8.7158 11.9018 5.3649 11.9259 2.01467L11.9286 2.01667Z" fill="white"/>
</svg>