<svg xmlns="http://www.w3.org/2000/svg" width="24" height="24" viewBox="0 0 24 24" fill="none">
<path d="M19.9401 8.03474C19.9401 8.20424 19.9401 8.38372 19.9401 8.55322C19.9496 10.059 19.6547 11.5517 19.0727 12.9446C18.4905 14.3375 17.6329 15.603 16.5493 16.6678C15.4657 17.7326 14.1778 18.5753 12.7602 19.1474C11.3427 19.7193 9.82362 20.0091 8.29122 19.9998C6.06102 20.0062 3.87642 19.3795 2 18.1951C2.33486 18.1951 2.64942 18.1951 3.01471 18.1951C4.85485 18.1951 6.64164 17.5876 8.08828 16.4701C7.23078 16.4625 6.39775 16.1883 5.70867 15.6868C5.0196 15.1852 4.50989 14.4821 4.25266 13.6782C4.51106 13.7187 4.77234 13.7388 5.03399 13.7381C5.3964 13.7355 5.7573 13.692 6.10959 13.6085C5.1928 13.4246 4.36884 12.9351 3.77713 12.2228C3.18542 11.5106 2.86232 10.6193 2.86251 9.69988C3.42982 10.0074 4.06197 10.1815 4.70928 10.2084C4.13812 9.83714 3.67016 9.33183 3.3477 8.73817C3.02526 8.14452 2.8585 7.48124 2.86251 6.80832C2.86377 6.10785 3.05276 5.42005 3.41045 4.81414C4.43707 6.05816 5.71815 7.07642 7.17073 7.80298C8.62331 8.52953 10.215 8.94819 11.8427 9.03183C11.7783 8.73007 11.7443 8.42282 11.7413 8.11451C11.7148 7.29378 11.9468 6.48503 12.4056 5.79872C12.8644 5.11239 13.5276 4.58195 14.3046 4.2798C15.0816 3.97767 15.9347 3.91856 16.7471 4.11056C17.5596 4.30256 18.2919 4.73631 18.8442 5.35257C19.7626 5.17131 20.6417 4.83389 21.4419 4.35548C21.1363 5.28593 20.4936 6.07366 19.6357 6.56902C20.4512 6.48242 21.2485 6.27395 22 5.95082C21.4435 6.74945 20.7581 7.45337 19.9706 8.03474H19.9401Z" fill="white"/>
</svg>