<svg xmlns="http://www.w3.org/2000/svg" width="24" height="24" viewBox="0 0 24 24" fill="none">
<path d="M7.25315 7.8285V10.758H8.44851V7.8285L10.058 3H8.79351L7.8512 6.141L6.90889 3H5.59878L7.25315 7.8285ZM10.4714 8.016C10.4714 9.0945 10.5634 9.49275 10.7017 9.91425C10.9547 10.5938 11.4145 10.9222 12.1273 10.9222C12.8401 10.9222 13.3226 10.5938 13.5757 9.91425C13.714 9.492 13.8059 9.09375 13.8059 8.016C13.8059 6.93825 13.714 6.35175 13.5757 5.93025C13.3226 5.25075 12.8401 4.92225 12.1273 4.92225C11.4145 4.92225 10.9547 5.25075 10.7017 5.93025C10.5634 6.37575 10.4714 6.93825 10.4714 8.016ZM17.7355 10.758V5.08575H16.6321V8.484C16.6321 8.83575 16.6093 9.117 16.5629 9.25725C16.4938 9.5385 16.3327 9.6555 16.126 9.6555C15.9193 9.6555 15.781 9.5385 15.7119 9.30375C15.6891 9.16275 15.6655 8.9055 15.6655 8.577V5.085H14.6077V9.3975C14.6077 10.4055 14.9527 10.9207 15.6655 10.9207C16.0797 10.9207 16.4475 10.6628 16.6542 10.1235V10.7565H17.7348L17.7355 10.758ZM12.6782 7.89825V8.3205C12.6782 9 12.6782 9 12.6554 9.09375C12.5863 9.5625 12.4024 9.8205 12.1265 9.8205C11.8279 9.8205 11.6668 9.53925 11.5976 8.97675V7.73475C11.5976 7.149 11.5976 6.774 11.6204 6.65625C11.6896 6.234 11.8507 6.0465 12.1265 6.0465C12.4024 6.0465 12.5863 6.3045 12.6554 6.75C12.6782 6.891 12.6782 7.266 12.6782 7.89825ZM7.3451 11.5545H16.6549C17.9422 11.5545 19 12.6562 19 13.9688V18.5858C19 19.8983 17.9422 21 16.6549 21H7.3451C6.0578 21 5 19.8983 5 18.5858V13.9688C5 12.6562 6.0578 11.5545 7.3451 11.5545ZM8.17266 14.0858H9.1385V13.101H6.35719V14.0858H7.32304V19.1017H8.17339L8.17266 14.0858ZM13.1836 19.1017V18.6097C13.3219 18.9847 13.5742 19.2195 13.8964 19.2195C14.287 19.2195 14.5628 18.9382 14.6783 18.3525C14.7475 18.0712 14.7931 17.5792 14.7931 16.8757C14.7931 16.149 14.7467 15.6337 14.7011 15.3285C14.5864 14.7428 14.287 14.4615 13.8964 14.4615C13.5977 14.4615 13.3675 14.649 13.2299 14.9775V13.1025H12.4715V19.1025H13.1843L13.1836 19.1017ZM16.0804 16.992H17.6435V16.6403C17.6435 15.7965 17.5516 15.2572 17.4133 14.976C17.2294 14.6475 16.9072 14.46 16.4938 14.46C16.0569 14.46 15.7354 14.6475 15.5515 14.952C15.4367 15.1395 15.3448 15.4208 15.3212 15.7958C15.2984 15.96 15.2749 16.2878 15.2749 16.71C15.2749 17.2493 15.2977 17.601 15.3212 17.7885C15.3441 18.2108 15.436 18.5618 15.5743 18.7965C15.7582 19.0778 16.0804 19.2188 16.471 19.2188C16.8616 19.2188 17.161 19.1017 17.3449 18.867C17.5288 18.6322 17.6207 18.2572 17.6207 17.7188V17.5312H16.8623C16.8623 18.141 16.7476 18.4222 16.4945 18.4222C16.3106 18.4222 16.1723 18.2812 16.1267 18C16.0804 17.859 16.0804 17.6018 16.0804 17.2733V16.992ZM10.9996 19.1017H11.7815V14.5785H10.9768V17.4615C10.9768 17.7195 10.9768 17.907 10.9304 18.024C10.8841 18.2115 10.7921 18.3053 10.6318 18.3053C10.4935 18.3053 10.3787 18.2347 10.3331 18.0472C10.2868 17.9535 10.2868 17.766 10.2868 17.5312V14.5778H9.55118V18.117C9.55118 18.8438 9.75788 19.2188 10.2868 19.2188C10.5854 19.2188 10.8385 19.008 10.9996 18.633V19.1017ZM16.0804 16.1483V16.0778C16.0576 15.8197 16.0804 15.5858 16.1495 15.4447C16.2187 15.3278 16.3334 15.2572 16.4717 15.2572C16.6328 15.2572 16.7476 15.351 16.7939 15.5153C16.8403 15.6322 16.8403 15.8197 16.8403 16.0778V16.2653H16.0819V16.1483H16.0804ZM13.6433 15.3285C13.8272 15.3285 13.942 15.5632 13.9883 15.9615V16.8525C13.9883 16.8525 13.9883 17.673 13.9655 17.7435C13.9427 18.1418 13.8272 18.3533 13.6433 18.3533C13.4366 18.3533 13.2755 18.189 13.2292 17.8612C13.2064 17.7443 13.2064 17.463 13.2064 17.0408C13.2064 16.455 13.2064 16.1265 13.2292 16.0328C13.2755 15.5873 13.4131 15.3285 13.6433 15.3285Z" fill="white"/>
</svg>