<svg width="16" height="16" viewBox="0 0 16 16" fill="none" xmlns="http://www.w3.org/2000/svg">
    <path d="M6.51602 8.00008C6.11602 8.00008 5.78268 7.85008 5.51602 7.55008C5.24935 7.25008 5.14379 6.90008 5.19935 6.50008L5.41602 4.86675C5.5049 4.23342 5.79379 3.7083 6.28268 3.29142C6.77157 2.87453 7.34379 2.6663 7.99935 2.66675C8.6549 2.66675 9.22713 2.87519 9.71602 3.29208C10.2049 3.70897 10.4938 4.23386 10.5827 4.86675L10.7993 6.50008C10.8549 6.90008 10.7493 7.25008 10.4827 7.55008C10.216 7.85008 9.88268 8.00008 9.48268 8.00008H6.51602ZM6.51602 6.66675H9.48268L9.26602 5.06675C9.22157 4.75564 9.08002 4.50008 8.84135 4.30008C8.60268 4.10008 8.32202 4.00008 7.99935 4.00008C7.67713 4.00008 7.39646 4.10008 7.15735 4.30008C6.91824 4.50008 6.77668 4.75564 6.73268 5.06675L6.51602 6.66675ZM2.66602 13.3334V11.4667C2.66602 11.089 2.76335 10.7416 2.95802 10.4247C3.15268 10.1079 3.4109 9.8663 3.73268 9.70008C4.42157 9.35564 5.12157 9.09719 5.83268 8.92475C6.54379 8.7523 7.26602 8.6663 7.99935 8.66675C8.73268 8.66675 9.4549 8.75297 10.166 8.92542C10.8771 9.09786 11.5771 9.35608 12.266 9.70008C12.5882 9.86675 12.8467 10.1085 13.0413 10.4254C13.236 10.7423 13.3331 11.0894 13.3327 11.4667V13.3334H2.66602ZM3.99935 12.0001H11.9993V11.4667C11.9993 11.3445 11.9687 11.2334 11.9073 11.1334C11.846 11.0334 11.7656 10.9556 11.666 10.9001C11.066 10.6001 10.4605 10.3752 9.84935 10.2254C9.23824 10.0756 8.62157 10.0005 7.99935 10.0001C7.37713 10.0001 6.76046 10.0752 6.14935 10.2254C5.53824 10.3756 4.93268 10.6005 4.33268 10.9001C4.23268 10.9556 4.15202 11.0334 4.09068 11.1334C4.02935 11.2334 3.9989 11.3445 3.99935 11.4667V12.0001Z"
          fill="white"/>
</svg>
