<svg width="26" height="22" viewBox="0 0 26 22" fill="none" xmlns="http://www.w3.org/2000/svg">
    <path d="M0.900391 1.99995C0.900391 1.65517 1.03735 1.32451 1.28115 1.08071C1.52495 0.836915 1.85561 0.699951 2.20039 0.699951H23.8004C24.1452 0.699951 24.4758 0.836916 24.7196 1.08071C24.9634 1.32451 25.1004 1.65517 25.1004 1.99995C25.1004 2.34473 24.9634 2.67539 24.7196 2.91919C24.4758 3.16299 24.1452 3.29995 23.8004 3.29995H2.20039C1.85561 3.29995 1.52495 3.16299 1.28115 2.91919C1.03735 2.67539 0.900391 2.34473 0.900391 1.99995ZM0.900391 11C0.900391 10.6552 1.03735 10.3245 1.28115 10.0807C1.52495 9.83691 1.85561 9.69995 2.20039 9.69995H23.8004C24.1452 9.69995 24.4758 9.83692 24.7196 10.0807C24.9634 10.3245 25.1004 10.6552 25.1004 11C25.1004 11.3447 24.9634 11.6754 24.7196 11.9192C24.4758 12.163 24.1452 12.2999 23.8004 12.2999H2.20039C1.85561 12.2999 1.52495 12.163 1.28115 11.9192C1.03735 11.6754 0.900391 11.3447 0.900391 11ZM0.900391 19.9999C0.900391 19.6552 1.03735 19.3245 1.28115 19.0807C1.52495 18.8369 1.85561 18.6999 2.20039 18.6999H13.0004C13.3452 18.6999 13.6758 18.8369 13.9196 19.0807C14.1634 19.3245 14.3004 19.6552 14.3004 19.9999C14.3004 20.3447 14.1634 20.6754 13.9196 20.9192C13.6758 21.163 13.3452 21.2999 13.0004 21.2999H2.20039C1.85561 21.2999 1.52495 21.163 1.28115 20.9192C1.03735 20.6754 0.900391 20.3447 0.900391 19.9999Z"
          fill="#191919" stroke="white"/>
</svg>
