<svg width="149" height="21" viewBox="0 0 149 21" fill="none" xmlns="http://www.w3.org/2000/svg">
    <path d="M3.168 19.656V0.360001H3.888V19.656H3.168ZM0 19.656V0.360001H0.72V19.656H0ZM1.584 19.656V0.360001H2.304V19.656H1.584ZM4.752 11.592V10.872H10.392C11.304 10.872 12.128 10.672 12.864 10.272C13.616 9.872 14.208 9.304 14.64 8.568C15.088 7.832 15.312 6.968 15.312 5.976C15.312 4.984 15.088 4.12 14.64 3.384C14.208 2.648 13.616 2.08 12.864 1.68C12.128 1.28 11.304 1.08 10.392 1.08H4.752V0.360001H10.392C11.432 0.360001 12.376 0.600001 13.224 1.08C14.088 1.544 14.768 2.2 15.264 3.048C15.776 3.88 16.032 4.856 16.032 5.976C16.032 7.096 15.776 8.08 15.264 8.928C14.768 9.76 14.088 10.416 13.224 10.896C12.376 11.36 11.432 11.592 10.392 11.592H4.752ZM4.752 10.008V9.288H10.392C11.32 9.288 12.104 9 12.744 8.424C13.4 7.832 13.728 7.016 13.728 5.976C13.728 4.936 13.4 4.128 12.744 3.552C12.104 2.96 11.32 2.664 10.392 2.664H4.752V1.944H10.392C11.144 1.944 11.824 2.112 12.432 2.448C13.04 2.768 13.528 3.232 13.896 3.84C14.264 4.432 14.448 5.144 14.448 5.976C14.448 6.808 14.264 7.528 13.896 8.136C13.528 8.728 13.04 9.192 12.432 9.528C11.824 9.848 11.144 10.008 10.392 10.008H4.752ZM4.752 8.424V7.704H10.392C10.872 7.704 11.28 7.568 11.616 7.296C11.968 7.008 12.144 6.568 12.144 5.976C12.144 5.368 11.968 4.928 11.616 4.656C11.28 4.384 10.872 4.248 10.392 4.248H4.752V3.528H10.392C11.08 3.528 11.664 3.736 12.144 4.152C12.624 4.568 12.864 5.176 12.864 5.976C12.864 6.776 12.624 7.384 12.144 7.8C11.664 8.216 11.08 8.424 10.392 8.424H4.752Z" fill="white"/>
    <path d="M25.5696 19.656V0.360001H26.2896V19.656H25.5696ZM22.4016 19.656V0.360001H23.1216V19.656H22.4016ZM23.9856 19.656V0.360001H24.7056V19.656H23.9856ZM27.1536 11.592V10.872H32.7936C33.7056 10.872 34.5296 10.672 35.2656 10.272C36.0176 9.872 36.6096 9.304 37.0416 8.568C37.4896 7.832 37.7136 6.968 37.7136 5.976C37.7136 4.984 37.4896 4.12 37.0416 3.384C36.6096 2.648 36.0176 2.08 35.2656 1.68C34.5296 1.28 33.7056 1.08 32.7936 1.08H27.1536V0.360001H32.7936C33.8336 0.360001 34.7776 0.600001 35.6256 1.08C36.4896 1.544 37.1696 2.2 37.6656 3.048C38.1776 3.88 38.4336 4.856 38.4336 5.976C38.4336 7.096 38.1776 8.08 37.6656 8.928C37.1696 9.76 36.4896 10.416 35.6256 10.896C34.7776 11.36 33.8336 11.592 32.7936 11.592H27.1536ZM27.1536 10.008V9.288H32.7936C33.7216 9.288 34.5056 9 35.1456 8.424C35.8016 7.832 36.1296 7.016 36.1296 5.976C36.1296 4.936 35.8016 4.128 35.1456 3.552C34.5056 2.96 33.7216 2.664 32.7936 2.664H27.1536V1.944H32.7936C33.5456 1.944 34.2256 2.112 34.8336 2.448C35.4416 2.768 35.9296 3.232 36.2976 3.84C36.6656 4.432 36.8496 5.144 36.8496 5.976C36.8496 6.808 36.6656 7.528 36.2976 8.136C35.9296 8.728 35.4416 9.192 34.8336 9.528C34.2256 9.848 33.5456 10.008 32.7936 10.008H27.1536ZM27.1536 8.424V7.704H32.7936C33.2736 7.704 33.6816 7.568 34.0176 7.296C34.3696 7.008 34.5456 6.568 34.5456 5.976C34.5456 5.368 34.3696 4.928 34.0176 4.656C33.6816 4.384 33.2736 4.248 32.7936 4.248H27.1536V3.528H32.7936C33.4816 3.528 34.0656 3.736 34.5456 4.152C35.0256 4.568 35.2656 5.176 35.2656 5.976C35.2656 6.776 35.0256 7.384 34.5456 7.8C34.0656 8.216 33.4816 8.424 32.7936 8.424H27.1536ZM37.4496 19.656L34.0656 12.24C34.1776 12.224 34.2896 12.208 34.4016 12.192C34.5296 12.16 34.6496 12.12 34.7616 12.072L38.2416 19.656H37.4496ZM35.6976 19.656L32.3616 12.408C32.4896 12.408 32.6176 12.408 32.7456 12.408C32.8896 12.392 33.0256 12.376 33.1536 12.36L36.4896 19.656H35.6976ZM33.9456 19.656L30.6336 12.432H31.4256L34.7376 19.656H33.9456Z" fill="white"/>
    <path d="M63.9004 10.008C63.9004 8.728 63.6764 7.528 63.2284 6.408C62.7964 5.272 62.1724 4.28 61.3564 3.432C60.5404 2.584 59.5644 1.92 58.4284 1.44C57.2924 0.960001 56.0204 0.720001 54.6124 0.720001C53.2044 0.720001 51.9324 0.960001 50.7964 1.44C49.6604 1.92 48.6844 2.584 47.8684 3.432C47.0524 4.28 46.4204 5.272 45.9724 6.408C45.5404 7.528 45.3244 8.728 45.3244 10.008C45.3244 11.288 45.5404 12.496 45.9724 13.632C46.4204 14.752 47.0524 15.736 47.8684 16.584C48.6844 17.432 49.6604 18.096 50.7964 18.576C51.9324 19.056 53.2044 19.296 54.6124 19.296C56.0204 19.296 57.2924 19.056 58.4284 18.576C59.5644 18.096 60.5404 17.432 61.3564 16.584C62.1724 15.736 62.7964 14.752 63.2284 13.632C63.6764 12.496 63.9004 11.288 63.9004 10.008ZM62.3164 10.008C62.3164 8.584 62.0044 7.296 61.3804 6.144C60.7564 4.976 59.8684 4.048 58.7164 3.36C57.5644 2.672 56.1964 2.328 54.6124 2.328C53.0444 2.328 51.6764 2.672 50.5084 3.36C49.3564 4.048 48.4684 4.976 47.8444 6.144C47.2204 7.296 46.9084 8.584 46.9084 10.008C46.9084 11.416 47.2204 12.704 47.8444 13.872C48.4684 15.04 49.3564 15.968 50.5084 16.656C51.6764 17.344 53.0444 17.688 54.6124 17.688C56.1964 17.688 57.5644 17.344 58.7164 16.656C59.8684 15.968 60.7564 15.04 61.3804 13.872C62.0044 12.704 62.3164 11.416 62.3164 10.008ZM60.7324 10.008C60.7324 8.888 60.4924 7.872 60.0124 6.96C59.5324 6.032 58.8364 5.296 57.9244 4.752C57.0124 4.192 55.9084 3.912 54.6124 3.912C53.3324 3.912 52.2284 4.192 51.3004 4.752C50.3884 5.296 49.6924 6.032 49.2124 6.96C48.7324 7.872 48.4924 8.888 48.4924 10.008C48.4924 11.128 48.7324 12.152 49.2124 13.08C49.6924 13.992 50.3884 14.728 51.3004 15.288C52.2284 15.832 53.3324 16.104 54.6124 16.104C55.9084 16.104 57.0124 15.832 57.9244 15.288C58.8364 14.728 59.5324 13.992 60.0124 13.08C60.4924 12.152 60.7324 11.128 60.7324 10.008ZM54.6124 16.848C53.1884 16.848 51.9644 16.544 50.9404 15.936C49.9164 15.312 49.1324 14.48 48.5884 13.44C48.0444 12.4 47.7724 11.256 47.7724 10.008C47.7724 8.744 48.0444 7.6 48.5884 6.576C49.1324 5.536 49.9164 4.712 50.9404 4.104C51.9644 3.48 53.1884 3.168 54.6124 3.168C56.0364 3.168 57.2604 3.48 58.2844 4.104C59.3084 4.712 60.0924 5.536 60.6364 6.576C61.1804 7.6 61.4524 8.744 61.4524 10.008C61.4524 11.256 61.1804 12.4 60.6364 13.44C60.0924 14.48 59.3084 15.312 58.2844 15.936C57.2604 16.544 56.0364 16.848 54.6124 16.848ZM54.6124 18.432C53.3324 18.432 52.1724 18.216 51.1324 17.784C50.1084 17.336 49.2204 16.728 48.4684 15.96C47.7324 15.192 47.1644 14.304 46.7644 13.296C46.3804 12.272 46.1884 11.176 46.1884 10.008C46.1884 8.84 46.3804 7.752 46.7644 6.744C47.1644 5.72 47.7324 4.824 48.4684 4.056C49.2204 3.272 50.1084 2.664 51.1324 2.232C52.1724 1.8 53.3324 1.584 54.6124 1.584C55.8924 1.584 57.0444 1.8 58.0684 2.232C59.1084 2.664 59.9964 3.272 60.7324 4.056C61.4844 4.824 62.0524 5.72 62.4364 6.744C62.8364 7.752 63.0364 8.84 63.0364 10.008C63.0364 11.176 62.8364 12.272 62.4364 13.296C62.0524 14.304 61.4844 15.192 60.7324 15.96C59.9964 16.728 59.1084 17.336 58.0684 17.784C57.0444 18.216 55.8924 18.432 54.6124 18.432ZM54.6124 20.016C53.1084 20.016 51.7404 19.76 50.5084 19.248C49.2924 18.72 48.2444 18 47.3644 17.088C46.4844 16.176 45.8044 15.12 45.3244 13.92C44.8444 12.704 44.6044 11.4 44.6044 10.008C44.6044 8.616 44.8444 7.32 45.3244 6.12C45.8044 4.904 46.4844 3.84 47.3644 2.928C48.2444 2.016 49.2924 1.304 50.5084 0.792001C51.7404 0.264 53.1084 0 54.6124 0C56.1164 0 57.4764 0.264 58.6924 0.792001C59.9244 1.304 60.9804 2.016 61.8604 2.928C62.7404 3.84 63.4204 4.904 63.9004 6.12C64.3804 7.32 64.6204 8.616 64.6204 10.008C64.6204 11.4 64.3804 12.704 63.9004 13.92C63.4204 15.12 62.7404 16.176 61.8604 17.088C60.9804 18 59.9244 18.72 58.6924 19.248C57.4764 19.76 56.1164 20.016 54.6124 20.016Z" fill="white"/>
    <path d="M69.1744 1.08V0.360001H84.0784V1.08H69.1744ZM69.1744 2.664V1.944H84.0784V2.664H69.1744ZM69.1744 4.248V3.528H84.0784V4.248H69.1744ZM77.8624 19.656V5.016H78.5824V19.656H77.8624ZM74.6944 19.656V5.016H75.4144V19.656H74.6944ZM76.2784 19.656V5.016H76.9984V19.656H76.2784Z" fill="white"/>
    <path d="M93.4774 19.656V0.360001H94.1974V19.656H93.4774ZM90.3094 19.656V0.360001H91.0294V19.656H90.3094ZM91.8934 19.656V0.360001H92.6134V19.656H91.8934ZM95.0614 1.08V0.360001H104.637V1.08H95.0614ZM95.0614 2.664V1.944H104.637V2.664H95.0614ZM95.0614 4.248V3.528H104.637V4.248H95.0614ZM95.0614 8.784V8.064H103.269V8.784H95.0614ZM95.0614 10.368V9.648H103.269V10.368H95.0614ZM95.0614 11.952V11.232H103.269V11.952H95.0614ZM95.0614 16.488V15.768H104.637V16.488H95.0614ZM95.0614 18.072V17.352H104.637V18.072H95.0614ZM95.0614 19.656V18.936H104.637V19.656H95.0614Z" fill="white"/>
    <path d="M120.411 16.848C118.987 16.848 117.763 16.544 116.739 15.936C115.715 15.312 114.931 14.48 114.387 13.44C113.843 12.4 113.571 11.256 113.571 10.008C113.571 8.744 113.843 7.6 114.387 6.576C114.931 5.536 115.715 4.712 116.739 4.104C117.763 3.48 118.987 3.168 120.411 3.168C121.451 3.168 122.387 3.344 123.219 3.696C124.051 4.032 124.755 4.504 125.331 5.112L124.827 5.616C124.299 5.088 123.667 4.672 122.931 4.368C122.195 4.064 121.355 3.912 120.411 3.912C119.131 3.912 118.027 4.192 117.099 4.752C116.187 5.296 115.491 6.032 115.011 6.96C114.531 7.872 114.291 8.888 114.291 10.008C114.291 11.128 114.531 12.152 115.011 13.08C115.491 13.992 116.187 14.728 117.099 15.288C118.027 15.832 119.131 16.104 120.411 16.104C121.355 16.104 122.195 15.952 122.931 15.648C123.667 15.344 124.299 14.928 124.827 14.4L125.331 14.904C124.755 15.496 124.051 15.968 123.219 16.32C122.387 16.672 121.451 16.848 120.411 16.848ZM120.411 18.432C119.131 18.432 117.971 18.216 116.931 17.784C115.907 17.336 115.019 16.728 114.267 15.96C113.531 15.192 112.963 14.304 112.563 13.296C112.179 12.272 111.987 11.176 111.987 10.008C111.987 8.84 112.179 7.752 112.563 6.744C112.963 5.72 113.531 4.824 114.267 4.056C115.019 3.272 115.907 2.664 116.931 2.232C117.971 1.8 119.131 1.584 120.411 1.584C121.675 1.584 122.811 1.8 123.819 2.232C124.843 2.648 125.723 3.232 126.459 3.984L125.931 4.512C125.275 3.824 124.475 3.288 123.531 2.904C122.603 2.52 121.563 2.328 120.411 2.328C118.843 2.328 117.475 2.672 116.307 3.36C115.155 4.048 114.267 4.976 113.643 6.144C113.019 7.296 112.707 8.584 112.707 10.008C112.707 11.416 113.019 12.704 113.643 13.872C114.267 15.04 115.155 15.968 116.307 16.656C117.475 17.344 118.843 17.688 120.411 17.688C121.563 17.688 122.603 17.496 123.531 17.112C124.475 16.728 125.275 16.192 125.931 15.504L126.459 16.032C125.723 16.768 124.843 17.352 123.819 17.784C122.811 18.216 121.675 18.432 120.411 18.432ZM120.411 20.016C118.907 20.016 117.539 19.76 116.307 19.248C115.091 18.72 114.043 18 113.163 17.088C112.283 16.176 111.603 15.12 111.123 13.92C110.643 12.704 110.403 11.4 110.403 10.008C110.403 8.616 110.643 7.32 111.123 6.12C111.603 4.904 112.283 3.84 113.163 2.928C114.043 2.016 115.091 1.304 116.307 0.792001C117.539 0.264 118.907 0 120.411 0C121.883 0 123.227 0.256 124.443 0.768C125.659 1.264 126.707 1.96 127.587 2.856L127.083 3.36C126.267 2.544 125.291 1.904 124.155 1.44C123.035 0.960001 121.787 0.720001 120.411 0.720001C119.003 0.720001 117.731 0.960001 116.595 1.44C115.459 1.92 114.483 2.584 113.667 3.432C112.851 4.28 112.219 5.272 111.771 6.408C111.339 7.528 111.123 8.728 111.123 10.008C111.123 11.288 111.339 12.496 111.771 13.632C112.219 14.752 112.851 15.736 113.667 16.584C114.483 17.432 115.459 18.096 116.595 18.576C117.731 19.056 119.003 19.296 120.411 19.296C121.787 19.296 123.035 19.064 124.155 18.6C125.291 18.12 126.267 17.472 127.083 16.656L127.587 17.16C126.707 18.04 125.659 18.736 124.443 19.248C123.227 19.76 121.883 20.016 120.411 20.016Z" fill="white"/>
    <path d="M133.121 1.08V0.360001H148.025V1.08H133.121ZM133.121 2.664V1.944H148.025V2.664H133.121ZM133.121 4.248V3.528H148.025V4.248H133.121ZM141.809 19.656V5.016H142.529V19.656H141.809ZM138.641 19.656V5.016H139.361V19.656H138.641ZM140.225 19.656V5.016H140.945V19.656H140.225Z" fill="white"/>
</svg>
