<svg width="16" height="17" viewBox="0 0 16 17" fill="none" xmlns="http://www.w3.org/2000/svg">
    <path d="M1.33791 3.52769C1.27065 2.57483 2.07752 1.83325 3.03079 1.83325H5.07135C5.56069 1.83325 6.00203 2.12809 6.19023 2.58072L7.04351 4.63289C7.25138 5.1328 7.10385 5.71021 6.68185 6.04853L6.14994 6.47495C5.91257 6.66524 5.83187 6.99338 5.97261 7.26307C6.69591 8.64934 7.76491 9.82581 9.06491 10.6777C9.33931 10.8575 9.70178 10.786 9.90651 10.5295L10.4608 9.83527C10.7984 9.41241 11.3746 9.26454 11.8734 9.47287L13.9214 10.3279C14.3731 10.5165 14.6673 10.9588 14.6673 11.4491V12.1577H14.6399V13.4665C14.6399 14.4217 13.8999 15.2303 12.949 15.1626C6.86871 14.7301 1.76896 9.63441 1.33791 3.52769Z"
          fill="#191919"/>
</svg>
