<svg width="12" height="12" viewBox="0 0 12 12" fill="none" xmlns="http://www.w3.org/2000/svg">
    <path d="M11.6441 1.41414C11.8393 1.21887 11.8393 0.902294 11.6441 0.707029L11.2905 0.353478C11.0953 0.158215 10.7787 0.158216 10.5834 0.353478L8.46206 2.47481L7.57816 1.59089C7.43516 1.44789 7.22011 1.40512 7.03326 1.48251C6.84641 1.5599 6.72461 1.74221 6.72461 1.94445V4.77287C6.72461 5.04904 6.94846 5.27289 7.22461 5.27289H10.0531C10.2553 5.27289 10.4376 5.15104 10.515 4.96421C10.5924 4.77738 10.5496 4.56232 10.4066 4.41932L9.52276 3.53547L11.6441 1.41414Z"
          fill="white"/>
    <path d="M1.00294 2.27083C0.952498 1.55618 1.55765 1 2.27261 1H3.80303C4.17003 1 4.50103 1.22113 4.64219 1.5606L5.28215 3.09973C5.43805 3.47466 5.3274 3.90772 5.0109 4.16146L4.61197 4.48127C4.43394 4.62399 4.37341 4.87009 4.47897 5.07236C5.02145 6.11206 5.8232 6.99442 6.7982 7.63332C7.004 7.76822 7.27585 7.71456 7.4294 7.52221L7.8451 7.00152C8.0983 6.68437 8.53045 6.57347 8.9046 6.72972L10.4405 7.37101C10.7793 7.51246 11 7.84416 11 8.21192V8.74332H10.9794V9.72492C10.9794 10.4414 10.4244 11.0478 9.7113 10.997C5.15105 10.6726 1.32623 6.85087 1.00294 2.27083Z"
          fill="white"/>
</svg>
