<svg width="28" height="28" viewBox="0 0 28 28" fill="none" xmlns="http://www.w3.org/2000/svg">
    <path d="M11.864 7.42459L11.864 7.42459C12.1424 8.09414 11.9446 8.86723 11.38 9.31988C11.38 9.31988 11.38 9.31988 11.38 9.31988L10.4492 10.0661C9.86115 10.5375 9.64358 11.3678 10.0083 12.0667C11.3138 14.5688 13.2429 16.6918 15.5891 18.2292C16.3015 18.6961 17.2199 18.4985 17.7267 17.8637C17.7267 17.8637 17.7267 17.8637 17.7267 17.8637L18.6966 16.6487C19.1483 16.0829 19.9187 15.8856 20.5854 16.164L20.5854 16.164L24.1693 17.6603L24.3619 17.199L24.1693 17.6604C24.7732 17.9125 25.1673 18.5042 25.1673 19.1611V19.901H25.1194V20.401V22.6914C25.1194 24.1235 24.0224 25.2553 22.6958 25.1609C12.3038 24.4216 3.57645 15.7021 2.83961 5.26332C2.74556 3.93098 3.87706 2.83325 5.3034 2.83325H8.87438C9.52826 2.83325 10.1187 3.22725 10.3707 3.83328C10.3707 3.83328 10.3707 3.83329 10.3707 3.83329L11.864 7.42459Z"
          stroke="white"/>
</svg>
