<svg width="16" height="17" viewBox="0 0 16 17" fill="none" xmlns="http://www.w3.org/2000/svg">
    <g clip-path="url(#clip0_511_22277)">
        <path d="M15.5261 2.3856C15.7864 2.12525 15.7864 1.70314 15.5261 1.44279L15.0547 0.971385C14.7943 0.711035 14.3722 0.711036 14.1119 0.971385L11.2834 3.79983L10.1049 2.62127C9.9142 2.43061 9.62746 2.37357 9.37833 2.47676C9.1292 2.57995 8.9668 2.82303 8.9668 3.09268V6.86391C8.9668 7.23213 9.26526 7.5306 9.63346 7.5306H13.4047C13.6743 7.5306 13.9175 7.36813 14.0206 7.11903C14.1238 6.86992 14.0668 6.58317 13.8761 6.39251L12.6977 5.21404L15.5261 2.3856Z"
              fill="#191919"/>
        <path d="M1.33791 3.52769C1.27065 2.57483 2.07752 1.83325 3.03079 1.83325H5.07135C5.56069 1.83325 6.00203 2.12809 6.19023 2.58072L7.04351 4.63289C7.25138 5.1328 7.10385 5.71021 6.68185 6.04853L6.14994 6.47495C5.91257 6.66524 5.83187 6.99338 5.97261 7.26307C6.69591 8.64934 7.76491 9.82581 9.06491 10.6777C9.33931 10.8575 9.70178 10.786 9.90651 10.5295L10.4608 9.83527C10.7984 9.41241 11.3746 9.26454 11.8734 9.47287L13.9214 10.3279C14.3731 10.5165 14.6673 10.9588 14.6673 11.4491V12.1577H14.6399V13.4665C14.6399 14.4217 13.8999 15.2303 12.949 15.1626C6.86871 14.7301 1.76896 9.63441 1.33791 3.52769Z"
              fill="#191919"/>
    </g>
    <defs>
        <clipPath id="clip0_511_22277">
            <rect width="16" height="16" fill="white" transform="translate(0 0.5)"/>
        </clipPath>
    </defs>
</svg>
