<svg width="32" height="33" viewBox="0 0 32 33" fill="none" xmlns="http://www.w3.org/2000/svg">
    <path d="M22.1553 24.5414L27.8647 30.2521L29.7513 28.3654L24.0407 22.6561C25.7436 20.5317 26.6699 17.8894 26.666 15.1667C26.666 8.54275 21.29 3.16675 14.666 3.16675C8.04202 3.16675 2.66602 8.54275 2.66602 15.1667C2.66602 21.7907 8.04202 27.1667 14.666 27.1667C17.3887 27.1706 20.031 26.2444 22.1553 24.5414ZM21.166 21.8667C19.4259 23.5589 17.0933 24.5039 14.666 24.5001C9.50868 24.5001 5.33268 20.3227 5.33268 15.1667C5.33268 10.0094 9.50868 5.83341 14.666 5.83341C19.822 5.83341 23.9993 10.0094 23.9993 15.1667C24.0032 17.594 23.0582 19.9266 21.366 21.6667L21.166 21.8667Z"
          fill="#191919"/>
</svg>
