<svg width="16" height="17" viewBox="0 0 16 17" fill="none" xmlns="http://www.w3.org/2000/svg">
    <g clip-path="url(#clip0_511_22270)">
        <path d="M13.9045 6.25251C14.1618 6.25251 14.4036 6.15238 14.5855 5.97049C14.7674 5.78856 14.8676 5.54677 14.8676 5.28952C14.8676 5.03227 14.7674 4.79048 14.5855 4.60859L13.6322 3.65529C13.4503 3.47336 13.2085 3.37323 12.9513 3.37323C12.694 3.37323 12.4522 3.47336 12.2703 3.65529C11.9251 4.0005 11.8976 4.54469 12.1872 4.92196L11.9604 5.13448C11.1502 4.48702 10.1796 4.03234 9.11842 3.84118V3.35659C9.88137 3.328 10.4933 2.69877 10.4933 1.92898C10.4933 1.14103 9.85229 0.5 9.06435 0.5H6.90449C6.11655 0.5 5.47552 1.14103 5.47552 1.92898C5.47552 2.69877 6.08747 3.328 6.85042 3.35659V3.84118C5.77996 4.03404 4.8017 4.49504 3.98725 5.15154L3.79205 4.94874C4.10406 4.57086 4.08345 4.00878 3.73003 3.65529C3.54814 3.47336 3.30628 3.37323 3.04907 3.37323C2.79185 3.37323 2.55003 3.47336 2.36814 3.65529L1.41487 4.60859C1.23298 4.79048 1.13281 5.03227 1.13281 5.28952C1.13281 5.54677 1.23298 5.78856 1.41487 5.97045C1.59676 6.15238 1.83862 6.25251 2.09584 6.25251C2.31346 6.25251 2.51997 6.18055 2.68858 6.04831L2.90129 6.26934C2.08797 7.34025 1.60451 8.67472 1.60451 10.1201C1.60451 13.638 4.46655 16.5 7.98444 16.5C11.5023 16.5 14.3643 13.638 14.3643 10.1201C14.3643 8.66466 13.8741 7.32172 13.0505 6.24703L13.2853 6.02691C13.4586 6.17287 13.6754 6.25251 13.9045 6.25251ZM13.2299 10.1201C13.2299 13.0124 10.8768 15.3656 7.98444 15.3656C5.09208 15.3656 2.73895 13.0124 2.73895 10.1201C2.73895 7.22775 5.09208 4.87462 7.98444 4.87462C10.8768 4.87466 13.2299 7.22775 13.2299 10.1201Z"
              fill="#191919"/>
        <path d="M7.98418 6.07544C5.75391 6.07544 3.93945 7.8899 3.93945 10.1202C3.93945 12.3504 5.75391 14.1649 7.98418 14.1649C10.2144 14.1649 12.0289 12.3504 12.0289 10.1202C12.0289 7.8899 10.2144 6.07544 7.98418 6.07544ZM10.1333 8.99204L8.79761 10.1618C8.78774 10.3564 8.70939 10.5482 8.56078 10.6968C8.24234 11.0152 7.72602 11.0152 7.40758 10.6968C7.08914 10.3783 7.08914 9.862 7.40758 9.54357C7.58376 9.36739 7.82044 9.28911 8.05073 9.30791L9.38585 8.13864C9.62155 7.93229 9.97984 7.95596 10.1863 8.19162C10.3927 8.42732 10.3689 8.78565 10.1333 8.99204Z"
              fill="#191919"/>
    </g>
    <defs>
        <clipPath id="clip0_511_22270">
            <rect width="16" height="16" fill="white" transform="translate(0 0.5)"/>
        </clipPath>
    </defs>
</svg>
