<svg xmlns="http://www.w3.org/2000/svg" width="24" height="24" viewBox="0 0 24 24" fill="none">
<path d="M20.3347 4.50138C19.8085 3.94788 19.1817 3.50885 18.4908 3.20984C17.8 2.91085 17.0588 2.75785 16.3106 2.75978C15.5623 2.75785 14.8212 2.91085 14.1303 3.20984C13.4395 3.50885 12.8127 3.94788 12.2865 4.50138L11.9654 4.84732L11.6444 4.5133C10.5802 3.40608 9.13678 2.78406 7.63177 2.78406C6.12675 2.78406 4.68337 3.40608 3.61911 4.5133C2.56878 5.62822 1.98047 7.12718 1.98047 8.68838C1.98047 10.2496 2.56878 11.7486 3.61911 12.8634L11.3807 20.963C11.5419 21.1306 11.7605 21.2248 11.9884 21.2248C12.2162 21.2248 12.4348 21.1306 12.596 20.963L20.3576 12.8634C21.4084 11.7449 21.9947 10.2416 21.9904 8.67752C21.9862 7.11344 21.3915 5.61369 20.3347 4.50138Z" fill="#191919"/>
</svg>