<svg xmlns="http://www.w3.org/2000/svg" width="24" height="24" viewBox="0 0 24 24" fill="none">
<path d="M11.9855 21.2248C11.7576 21.2245 11.539 21.1302 11.378 20.9625L3.61864 12.8685C2.56861 11.7543 1.98047 10.2563 1.98047 8.69625C1.98047 7.13614 2.56861 5.6382 3.61864 4.52406C4.68259 3.4176 6.12555 2.79602 7.63013 2.79602C9.13471 2.79602 10.5777 3.4176 11.6416 4.52406L11.9855 4.834L12.3064 4.50022C12.8325 3.94711 13.4591 3.50837 14.1497 3.20959C14.8404 2.91079 15.5814 2.75791 16.3293 2.75982C17.0766 2.75634 17.817 2.90735 18.5077 3.20408C19.1982 3.50082 19.8253 3.93733 20.3523 4.4883C21.4023 5.60244 21.9905 7.10038 21.9905 8.66049C21.9905 10.2206 21.4023 11.7185 20.3523 12.8327L12.5929 20.9268C12.5161 21.0163 12.4227 21.0888 12.3183 21.14C12.214 21.1912 12.1008 21.22 11.9855 21.2248ZM7.64159 4.53598C7.12105 4.53204 6.60491 4.63535 6.12294 4.83994C5.64099 5.04455 5.20276 5.34638 4.83355 5.72804C4.08955 6.50543 3.67188 7.55766 3.67188 8.65453C3.67188 9.75138 4.08955 10.8036 4.83355 11.5811L11.9855 19.0672L19.1259 11.6049C19.4957 11.2207 19.7891 10.7645 19.9892 10.2623C20.1893 9.7602 20.2923 9.22195 20.2923 8.67837C20.2923 8.13478 20.1893 7.59653 19.9892 7.09438C19.7891 6.59224 19.4957 6.13604 19.1259 5.75188C18.7596 5.3695 18.3235 5.06709 17.8433 4.86238C17.363 4.65768 16.8483 4.55482 16.3293 4.55982C15.8088 4.55588 15.2926 4.65919 14.8107 4.86379C14.3287 5.06839 13.8905 5.37022 13.5213 5.75188L12.5929 6.71744C12.4289 6.87926 12.2115 6.96948 11.9855 6.96948C11.7594 6.96948 11.542 6.87926 11.378 6.71744L10.4496 5.75188C10.0823 5.36591 9.64493 5.05969 9.16289 4.85096C8.68085 4.64223 8.16374 4.53516 7.64159 4.53598Z" fill="#191919"/>
</svg>