<svg xmlns="http://www.w3.org/2000/svg" width="24" height="24" viewBox="0 0 24 24" fill="none">
    <path d="M9.775 12C9.175 12 8.675 11.775 8.275 11.325C7.875 10.875 7.71667 10.35 7.8 9.75L8.125 7.3C8.25833 6.35 8.69167 5.56233 9.425 4.937C10.1583 4.31167 11.0167 3.99933 12 4C12.9833 4 13.8417 4.31267 14.575 4.938C15.3083 5.56333 15.7417 6.35067 15.875 7.3L16.2 9.75C16.2833 10.35 16.125 10.875 15.725 11.325C15.325 11.775 14.825 12 14.225 12H9.775ZM9.775 10H14.225L13.9 7.6C13.8333 7.13333 13.621 6.75 13.263 6.45C12.905 6.15 12.484 6 12 6C11.5167 6 11.0957 6.15 10.737 6.45C10.3783 6.75 10.166 7.13333 10.1 7.6L9.775 10ZM4 20V17.2C4 16.6333 4.146 16.1123 4.438 15.637C4.73 15.1617 5.11733 14.7993 5.6 14.55C6.63333 14.0333 7.68333 13.6457 8.75 13.387C9.81667 13.1283 10.9 12.9993 12 13C13.1 13 14.1833 13.1293 15.25 13.388C16.3167 13.6467 17.3667 14.034 18.4 14.55C18.8833 14.8 19.271 15.1627 19.563 15.638C19.855 16.1133 20.0007 16.634 20 17.2V20H4ZM6 18H18V17.2C18 17.0167 17.954 16.85 17.862 16.7C17.77 16.55 17.6493 16.4333 17.5 16.35C16.6 15.9 15.6917 15.5627 14.775 15.338C13.8583 15.1133 12.9333 15.0007 12 15C11.0667 15 10.1417 15.1127 9.225 15.338C8.30833 15.5633 7.4 15.9007 6.5 16.35C6.35 16.4333 6.229 16.55 6.137 16.7C6.045 16.85 5.99933 17.0167 6 17.2V18Z" fill="#191919"/>
</svg>