 <svg className="header__svg" xmlns="http://www.w3.org/2000/svg"  viewBox="0 0 16 16" fill="none">
    <path d="M15.5261 1.8856C15.7864 1.62525 15.7864 1.20314 15.5261 0.942787L15.0547 0.471385C14.7943 0.211035 14.3722 0.211036 14.1119 0.471385L11.2834 3.29983L10.1049 2.12127C9.9142 1.93061 9.62746 1.87357 9.37833 1.97676C9.1292 2.07995 8.9668 2.32303 8.9668 2.59268V6.36391C8.9668 6.73213 9.26526 7.0306 9.63346 7.0306H13.4047C13.6743 7.0306 13.9175 6.86813 14.0206 6.61903C14.1238 6.36992 14.0668 6.08317 13.8761 5.89251L12.6977 4.71404L15.5261 1.8856Z" fill="#FEFEFE"/>
    <path d="M1.33791 3.02769C1.27065 2.07483 2.07752 1.33325 3.03079 1.33325H5.07135C5.56069 1.33325 6.00203 1.62809 6.19023 2.08072L7.04351 4.13289C7.25138 4.6328 7.10385 5.21021 6.68185 5.54853L6.14994 5.97495C5.91257 6.16524 5.83187 6.49338 5.97261 6.76307C6.69591 8.14934 7.76491 9.32581 9.06491 10.1777C9.33931 10.3575 9.70178 10.286 9.90651 10.0295L10.4608 9.33527C10.7984 8.91241 11.3746 8.76454 11.8734 8.97287L13.9214 9.82794C14.3731 10.0165 14.6673 10.4588 14.6673 10.9491V11.6577H14.6399V12.9665C14.6399 13.9217 13.8999 14.7303 12.949 14.6626C6.86871 14.2301 1.76896 9.13441 1.33791 3.02769Z" fill="#FEFEFE"/>
</svg>
    