<svg className="header__svg" xmlns="http://www.w3.org/2000/svg" viewBox="0 0 32 32" fill="none">
<path d="M27.1129 6.00184C26.4113 5.26384 25.5756 4.67847 24.6544 4.27979C23.7333 3.88113 22.745 3.67713 21.7474 3.67971C20.7497 3.67713 19.7616 3.88113 18.8404 4.27979C17.9193 4.67847 17.0836 5.26384 16.3819 6.00184L15.9539 6.46309L15.5259 6.01773C14.1069 4.54144 12.1824 3.71208 10.1757 3.71208C8.169 3.71208 6.2445 4.54144 4.82548 6.01773C3.42504 7.50429 2.64062 9.5029 2.64062 11.5845C2.64062 13.6661 3.42504 15.6647 4.82548 17.1512L15.1743 27.9507C15.3892 28.1742 15.6806 28.2997 15.9845 28.2997C16.2882 28.2997 16.5798 28.1742 16.7947 27.9507L27.1435 17.1512C28.5445 15.6598 29.3262 13.6555 29.3206 11.57C29.3149 9.48458 28.522 7.48492 27.1129 6.00184Z" fill="#FEFEFE"/>
</svg>
   
