<svg xmlns="http://www.w3.org/2000/svg" width="148" height="20" viewBox="0 0 148 20" fill="none">
<path d="M3.16746 19.6403V0.359713H3.88734V19.6403H3.16746ZM0 19.6403V0.359713H0.719877V19.6403H0ZM1.58373 19.6403V0.359713H2.30361V19.6403H1.58373ZM4.75119 11.5827V10.8633H10.3902C11.3021 10.8633 12.1259 10.6635 12.8618 10.2638C13.6137 9.86411 14.2056 9.29656 14.6375 8.56115C15.0854 7.82574 15.3094 6.96243 15.3094 5.97122C15.3094 4.98002 15.0854 4.11671 14.6375 3.3813C14.2056 2.64588 13.6137 2.07834 12.8618 1.67866C12.1259 1.27898 11.3021 1.07914 10.3902 1.07914H4.75119V0.359713H10.3902C11.4301 0.359713 12.3739 0.599521 13.2217 1.07914C14.0856 1.54277 14.7655 2.19824 15.2614 3.04556C15.7733 3.8769 16.0293 4.85212 16.0293 5.97122C16.0293 7.09033 15.7733 8.07354 15.2614 8.92086C14.7655 9.7522 14.0856 10.4077 13.2217 10.8873C12.3739 11.3509 11.4301 11.5827 10.3902 11.5827H4.75119ZM4.75119 10V9.28058H10.3902C11.3181 9.28058 12.1019 8.99281 12.7418 8.41727C13.3977 7.82574 13.7257 7.01039 13.7257 5.97122C13.7257 4.93205 13.3977 4.1247 12.7418 3.54916C12.1019 2.95763 11.3181 2.66187 10.3902 2.66187H4.75119V1.94245H10.3902C11.1421 1.94245 11.822 2.11031 12.4299 2.44604C13.0378 2.76579 13.5257 3.22942 13.8936 3.83693C14.2616 4.42846 14.4455 5.13989 14.4455 5.97122C14.4455 6.80256 14.2616 7.52198 13.8936 8.1295C13.5257 8.72102 13.0378 9.18465 12.4299 9.52038C11.822 9.84013 11.1421 10 10.3902 10H4.75119ZM4.75119 8.41727V7.69784H10.3902C10.8701 7.69784 11.2781 7.56195 11.614 7.29017C11.966 7.0024 12.1419 6.56275 12.1419 5.97122C12.1419 5.36371 11.966 4.92406 11.614 4.65228C11.2781 4.3805 10.8701 4.24461 10.3902 4.24461H4.75119V3.52518H10.3902C11.0781 3.52518 11.662 3.73301 12.1419 4.14868C12.6218 4.56435 12.8618 5.17186 12.8618 5.97122C12.8618 6.77058 12.6218 7.3781 12.1419 7.79376C11.662 8.20943 11.0781 8.41727 10.3902 8.41727H4.75119Z" fill="white"/>
<path d="M25.5652 19.6403V0.359713H26.2851V19.6403H25.5652ZM22.3977 19.6403V0.359713H23.1176V19.6403H22.3977ZM23.9815 19.6403V0.359713H24.7013V19.6403H23.9815ZM27.1489 11.5827V10.8633H32.788C33.6998 10.8633 34.5237 10.6635 35.2595 10.2638C36.0114 9.86411 36.6033 9.29656 37.0352 8.56115C37.4832 7.82574 37.7071 6.96243 37.7071 5.97122C37.7071 4.98002 37.4832 4.11671 37.0352 3.3813C36.6033 2.64588 36.0114 2.07834 35.2595 1.67866C34.5237 1.27898 33.6998 1.07914 32.788 1.07914H27.1489V0.359713H32.788C33.8278 0.359713 34.7716 0.599521 35.6195 1.07914C36.4833 1.54277 37.1632 2.19824 37.6591 3.04556C38.171 3.8769 38.427 4.85212 38.427 5.97122C38.427 7.09033 38.171 8.07354 37.6591 8.92086C37.1632 9.7522 36.4833 10.4077 35.6195 10.8873C34.7716 11.3509 33.8278 11.5827 32.788 11.5827H27.1489ZM27.1489 10V9.28058H32.788C33.7158 9.28058 34.4997 8.99281 35.1396 8.41727C35.7955 7.82574 36.1234 7.01039 36.1234 5.97122C36.1234 4.93205 35.7955 4.1247 35.1396 3.54916C34.4997 2.95763 33.7158 2.66187 32.788 2.66187H27.1489V1.94245H32.788C33.5398 1.94245 34.2197 2.11031 34.8276 2.44604C35.4355 2.76579 35.9234 3.22942 36.2914 3.83693C36.6593 4.42846 36.8433 5.13989 36.8433 5.97122C36.8433 6.80256 36.6593 7.52198 36.2914 8.1295C35.9234 8.72102 35.4355 9.18465 34.8276 9.52038C34.2197 9.84013 33.5398 10 32.788 10H27.1489ZM27.1489 8.41727V7.69784H32.788C33.2679 7.69784 33.6758 7.56195 34.0118 7.29017C34.3637 7.0024 34.5397 6.56275 34.5397 5.97122C34.5397 5.36371 34.3637 4.92406 34.0118 4.65228C33.6758 4.3805 33.2679 4.24461 32.788 4.24461H27.1489V3.52518H32.788C33.4758 3.52518 34.0597 3.73301 34.5397 4.14868C35.0196 4.56435 35.2595 5.17186 35.2595 5.97122C35.2595 6.77058 35.0196 7.3781 34.5397 7.79376C34.0597 8.20943 33.4758 8.41727 32.788 8.41727H27.1489ZM37.4432 19.6403L34.0598 12.2302C34.1717 12.2142 34.2837 12.1982 34.3957 12.1823C34.5237 12.1503 34.6437 12.1103 34.7556 12.0623L38.235 19.6403H37.4432ZM35.6915 19.6403L32.356 12.3981C32.484 12.3981 32.612 12.3981 32.74 12.3981C32.884 12.3821 33.0199 12.3661 33.1479 12.3501L36.4833 19.6403H35.6915ZM33.9398 19.6403L30.6283 12.4221H31.4202L34.7316 19.6403H33.9398Z" fill="white"/>
<path d="M63.8895 10C63.8895 8.72102 63.6655 7.52198 63.2176 6.40288C62.7857 5.26779 62.1618 4.27658 61.3459 3.42926C60.53 2.58193 59.5542 1.91847 58.4184 1.43885C57.2826 0.959233 56.0108 0.719425 54.6031 0.719425C53.1953 0.719425 51.9235 0.959233 50.7877 1.43885C49.6519 1.91847 48.6761 2.58193 47.8602 3.42926C47.0443 4.27658 46.4125 5.26779 45.9645 6.40288C45.5326 7.52198 45.3166 8.72102 45.3166 10C45.3166 11.279 45.5326 12.486 45.9645 13.6211C46.4125 14.7402 47.0443 15.7234 47.8602 16.5707C48.6761 17.4181 49.6519 18.0815 50.7877 18.5612C51.9235 19.0408 53.1953 19.2806 54.6031 19.2806C56.0108 19.2806 57.2826 19.0408 58.4184 18.5612C59.5542 18.0815 60.53 17.4181 61.3459 16.5707C62.1618 15.7234 62.7857 14.7402 63.2176 13.6211C63.6655 12.486 63.8895 11.279 63.8895 10ZM62.3057 10C62.3057 8.57714 61.9938 7.29017 61.3699 6.13909C60.746 4.97202 59.8582 4.04476 58.7064 3.35731C57.5546 2.66986 56.1868 2.32614 54.6031 2.32614C53.0353 2.32614 51.6676 2.66986 50.4998 3.35731C49.348 4.04476 48.4601 4.97202 47.8362 6.13909C47.2123 7.29017 46.9004 8.57714 46.9004 10C46.9004 11.4069 47.2123 12.6938 47.8362 13.8609C48.4601 15.028 49.348 15.9552 50.4998 16.6427C51.6676 17.3301 53.0353 17.6739 54.6031 17.6739C56.1868 17.6739 57.5546 17.3301 58.7064 16.6427C59.8582 15.9552 60.746 15.028 61.3699 13.8609C61.9938 12.6938 62.3057 11.4069 62.3057 10ZM60.722 10C60.722 8.8809 60.4821 7.86571 60.0021 6.95444C59.5222 6.02718 58.8263 5.29177 57.9145 4.7482C57.0026 4.18865 55.8988 3.90887 54.6031 3.90887C53.3233 3.90887 52.2195 4.18865 51.2916 4.7482C50.3798 5.29177 49.6839 6.02718 49.204 6.95444C48.7241 7.86571 48.4841 8.8809 48.4841 10C48.4841 11.1191 48.7241 12.1423 49.204 13.0695C49.6839 13.9808 50.3798 14.7162 51.2916 15.2758C52.2195 15.8193 53.3233 16.0911 54.6031 16.0911C55.8988 16.0911 57.0026 15.8193 57.9145 15.2758C58.8263 14.7162 59.5222 13.9808 60.0021 13.0695C60.4821 12.1423 60.722 11.1191 60.722 10ZM54.6031 16.8345C53.1793 16.8345 51.9555 16.5308 50.9317 15.9233C49.9079 15.2998 49.124 14.4684 48.5801 13.4293C48.0362 12.3901 47.7642 11.247 47.7642 10C47.7642 8.73701 48.0362 7.59393 48.5801 6.57074C49.124 5.53158 49.9079 4.70823 50.9317 4.10072C51.9555 3.47722 53.1793 3.16547 54.6031 3.16547C56.0268 3.16547 57.2506 3.47722 58.2744 4.10072C59.2983 4.70823 60.0821 5.53158 60.626 6.57074C61.1699 7.59393 61.4419 8.73701 61.4419 10C61.4419 11.247 61.1699 12.3901 60.626 13.4293C60.0821 14.4684 59.2983 15.2998 58.2744 15.9233C57.2506 16.5308 56.0268 16.8345 54.6031 16.8345ZM54.6031 18.4173C53.3233 18.4173 52.1635 18.2014 51.1236 17.7698C50.0998 17.3221 49.212 16.7146 48.4601 15.9472C47.7242 15.1799 47.1563 14.2926 46.7564 13.2854C46.3725 12.2622 46.1805 11.1671 46.1805 10C46.1805 8.83293 46.3725 7.7458 46.7564 6.73861C47.1563 5.71543 47.7242 4.82014 48.4601 4.05276C49.212 3.26938 50.0998 2.66187 51.1236 2.23022C52.1635 1.79856 53.3233 1.58273 54.6031 1.58273C55.8828 1.58273 57.0346 1.79856 58.0585 2.23022C59.0983 2.66187 59.9861 3.26938 60.722 4.05276C61.4739 4.82014 62.0418 5.71543 62.4257 6.73861C62.8257 7.7458 63.0256 8.83293 63.0256 10C63.0256 11.1671 62.8257 12.2622 62.4257 13.2854C62.0418 14.2926 61.4739 15.1799 60.722 15.9472C59.9861 16.7146 59.0983 17.3221 58.0585 17.7698C57.0346 18.2014 55.8828 18.4173 54.6031 18.4173ZM54.6031 20C53.0993 20 51.7315 19.7442 50.4998 19.2326C49.284 18.705 48.2361 17.9856 47.3563 17.0743C46.4764 16.1631 45.7966 15.1079 45.3166 13.9089C44.8367 12.6938 44.5968 11.3909 44.5968 10C44.5968 8.60911 44.8367 7.31415 45.3166 6.11511C45.7966 4.90008 46.4764 3.83693 47.3563 2.92566C48.2361 2.01439 49.284 1.30296 50.4998 0.791368C51.7315 0.263789 53.0993 0 54.6031 0C56.1068 0 57.4666 0.263789 58.6824 0.791368C59.9142 1.30296 60.97 2.01439 61.8498 2.92566C62.7297 3.83693 63.4096 4.90008 63.8895 6.11511C64.3694 7.31415 64.6094 8.60911 64.6094 10C64.6094 11.3909 64.3694 12.6938 63.8895 13.9089C63.4096 15.1079 62.7297 16.1631 61.8498 17.0743C60.97 17.9856 59.9142 18.705 58.6824 19.2326C57.4666 19.7442 56.1068 20 54.6031 20Z" fill="white"/>
<path d="M69.1626 1.07914V0.359713H84.064V1.07914H69.1626ZM69.1626 2.66187V1.94245H84.064V2.66187H69.1626ZM69.1626 4.24461V3.52518H84.064V4.24461H69.1626ZM77.8491 19.6403V5.01199H78.569V19.6403H77.8491ZM74.6816 19.6403V5.01199H75.4015V19.6403H74.6816ZM76.2654 19.6403V5.01199H76.9852V19.6403H76.2654Z" fill="white"/>
<path d="M93.4614 19.6403V0.359713H94.1813V19.6403H93.4614ZM90.294 19.6403V0.359713H91.0138V19.6403H90.294ZM91.8777 19.6403V0.359713H92.5976V19.6403H91.8777ZM95.0452 1.07914V0.359713H104.62V1.07914H95.0452ZM95.0452 2.66187V1.94245H104.62V2.66187H95.0452ZM95.0452 4.24461V3.52518H104.62V4.24461H95.0452ZM95.0452 8.77698V8.05755H103.252V8.77698H95.0452ZM95.0452 10.3597V9.64029H103.252V10.3597H95.0452ZM95.0452 11.9424V11.223H103.252V11.9424H95.0452ZM95.0452 16.4748V15.7554H104.62V16.4748H95.0452ZM95.0452 18.0576V17.3381H104.62V18.0576H95.0452ZM95.0452 19.6403V18.9209H104.62V19.6403H95.0452Z" fill="white"/>
<path d="M120.39 16.8345C118.967 16.8345 117.743 16.5308 116.719 15.9233C115.695 15.2998 114.911 14.4684 114.367 13.4293C113.823 12.3901 113.551 11.247 113.551 10C113.551 8.73701 113.823 7.59393 114.367 6.57074C114.911 5.53158 115.695 4.70823 116.719 4.10072C117.743 3.47722 118.967 3.16547 120.39 3.16547C121.43 3.16547 122.366 3.34133 123.198 3.69305C124.03 4.02878 124.734 4.5004 125.309 5.10791L124.806 5.61151C124.278 5.08393 123.646 4.66827 122.91 4.36451C122.174 4.06075 121.334 3.90887 120.39 3.90887C119.11 3.90887 118.007 4.18865 117.079 4.7482C116.167 5.29177 115.471 6.02718 114.991 6.95444C114.511 7.86571 114.271 8.8809 114.271 10C114.271 11.1191 114.511 12.1423 114.991 13.0695C115.471 13.9808 116.167 14.7162 117.079 15.2758C118.007 15.8193 119.11 16.0911 120.39 16.0911C121.334 16.0911 122.174 15.9392 122.91 15.6355C123.646 15.3317 124.278 14.9161 124.806 14.3885L125.309 14.8921C124.734 15.4836 124.03 15.9552 123.198 16.307C122.366 16.6587 121.43 16.8345 120.39 16.8345ZM120.39 18.4173C119.11 18.4173 117.951 18.2014 116.911 17.7698C115.887 17.3221 114.999 16.7146 114.247 15.9472C113.511 15.1799 112.944 14.2926 112.544 13.2854C112.16 12.2622 111.968 11.1671 111.968 10C111.968 8.83293 112.16 7.7458 112.544 6.73861C112.944 5.71543 113.511 4.82014 114.247 4.05276C114.999 3.26938 115.887 2.66187 116.911 2.23022C117.951 1.79856 119.11 1.58273 120.39 1.58273C121.654 1.58273 122.79 1.79856 123.798 2.23022C124.822 2.64588 125.701 3.22942 126.437 3.98082L125.909 4.50839C125.253 3.82094 124.454 3.28537 123.51 2.90168C122.582 2.51799 121.542 2.32614 120.39 2.32614C118.823 2.32614 117.455 2.66986 116.287 3.35731C115.135 4.04476 114.247 4.97202 113.623 6.13909C113 7.29017 112.688 8.57714 112.688 10C112.688 11.4069 113 12.6938 113.623 13.8609C114.247 15.028 115.135 15.9552 116.287 16.6427C117.455 17.3301 118.823 17.6739 120.39 17.6739C121.542 17.6739 122.582 17.482 123.51 17.0983C124.454 16.7146 125.253 16.1791 125.909 15.4916L126.437 16.0192C125.701 16.7546 124.822 17.3381 123.798 17.7698C122.79 18.2014 121.654 18.4173 120.39 18.4173ZM120.39 20C118.887 20 117.519 19.7442 116.287 19.2326C115.071 18.705 114.023 17.9856 113.144 17.0743C112.264 16.1631 111.584 15.1079 111.104 13.9089C110.624 12.6938 110.384 11.3909 110.384 10C110.384 8.60911 110.624 7.31415 111.104 6.11511C111.584 4.90008 112.264 3.83693 113.144 2.92566C114.023 2.01439 115.071 1.30296 116.287 0.791368C117.519 0.263789 118.887 0 120.39 0C121.862 0 123.206 0.255795 124.422 0.767386C125.637 1.26299 126.685 1.95843 127.565 2.85372L127.061 3.35731C126.245 2.54197 125.269 1.90248 124.134 1.43885C123.014 0.959233 121.766 0.719425 120.39 0.719425C118.983 0.719425 117.711 0.959233 116.575 1.43885C115.439 1.91847 114.463 2.58193 113.647 3.42926C112.832 4.27658 112.2 5.26779 111.752 6.40288C111.32 7.52198 111.104 8.72102 111.104 10C111.104 11.279 111.32 12.486 111.752 13.6211C112.2 14.7402 112.832 15.7234 113.647 16.5707C114.463 17.4181 115.439 18.0815 116.575 18.5612C117.711 19.0408 118.983 19.2806 120.39 19.2806C121.766 19.2806 123.014 19.0488 124.134 18.5851C125.269 18.1055 126.245 17.458 127.061 16.6427L127.565 17.1463C126.685 18.0256 125.637 18.721 124.422 19.2326C123.206 19.7442 121.862 20 120.39 20Z" fill="white"/>
<path d="M133.099 1.07914V0.359713H148V1.07914H133.099ZM133.099 2.66187V1.94245H148V2.66187H133.099ZM133.099 4.24461V3.52518H148V4.24461H133.099ZM141.785 19.6403V5.01199H142.505V19.6403H141.785ZM138.618 19.6403V5.01199H139.337V19.6403H138.618ZM140.201 19.6403V5.01199H140.921V19.6403H140.201Z" fill="white"/>
</svg>