<svg xmlns="http://www.w3.org/2000/svg" width="16" height="17" viewBox="0 0 16 17" fill="none">
<path d="M4.66667 5.88342H4.71667V5.83342V4.50008C4.71667 3.62929 5.06259 2.79416 5.67833 2.17841C6.29408 1.56267 7.12921 1.21675 8 1.21675C8.87079 1.21675 9.70592 1.56267 10.3217 2.17841C10.9374 2.79416 11.2833 3.62929 11.2833 4.50008V5.83342V5.88342H11.3333H13.3333C13.4969 5.88342 13.6537 5.94838 13.7694 6.06403C13.885 6.17968 13.95 6.33653 13.95 6.50008V14.5001C13.95 14.6636 13.885 14.8205 13.7694 14.9361C13.6537 15.0518 13.4969 15.1167 13.3333 15.1167H2.66667C2.50312 15.1167 2.34626 15.0518 2.23062 14.9361C2.11497 14.8205 2.05 14.6636 2.05 14.5001V6.50008C2.05 6.33653 2.11497 6.17968 2.23062 6.06403C2.34626 5.94838 2.50312 5.88342 2.66667 5.88342H4.66667ZM4.71667 7.16675V7.11675H4.66667H3.33333H3.28333V7.16675V13.8334V13.8834H3.33333H12.6667H12.7167V13.8334V7.16675V7.11675H12.6667H11.3333H11.2833V7.16675V8.45008H10.05V7.16675V7.11675H10H6H5.95V7.16675V8.45008H4.71667V7.16675ZM5.95 5.83342V5.88342H6H10H10.05V5.83342V4.50008C10.05 3.95639 9.83402 3.43496 9.44957 3.05051C9.06512 2.66606 8.54369 2.45008 8 2.45008C7.45631 2.45008 6.93488 2.66606 6.55043 3.05051C6.16598 3.43496 5.95 3.95639 5.95 4.50008V5.83342Z" fill="#191919" stroke="#FEFEFE" stroke-width="0.1"/>
</svg>